<svg width="50" height="50" viewBox="0 0 50 50" fill="none" xmlns="http://www.w3.org/2000/svg">
<circle cx="25" cy="25" r="25" fill="white"/>
<path d="M36.9552 24.9316V21.2775H30.9717C31.1088 21.1405 31.2458 21.0035 31.3371 20.8208H32.1593C33.3012 20.8208 34.2147 19.9073 34.2147 18.7654C34.2147 17.6235 33.3012 16.71 32.1593 16.71H31.9309H31.4742H25.5363V18.9937C25.5363 19.9073 25.9017 20.6837 26.4955 21.2775H21.4255V24.9316H22.339V24.0181H22.9785L23.892 25.8451H24.6228V37.264C24.6228 37.7664 24.2117 38.1775 23.7093 38.1775C23.2069 38.1775 22.7958 37.7664 22.7958 37.264H21.8823C21.8823 38.2688 22.7045 39.091 23.7093 39.091C24.7142 39.091 25.5363 38.2688 25.5363 37.264V30.8694H32.8444V37.264C32.8444 38.2688 33.6666 39.091 34.6715 39.091C35.6763 39.091 36.4985 38.2688 36.4985 37.264H35.585C35.585 37.7664 35.1739 38.1775 34.6715 38.1775C34.169 38.1775 33.7579 37.7664 33.7579 37.264V25.8451H34.4888L35.4023 24.0181H36.0417V24.9316H36.9552V24.9316ZM32.1593 17.6235C32.7988 17.6235 33.3012 18.1259 33.3012 18.7654C33.3012 19.4048 32.7988 19.9073 32.1593 19.9073H31.7939C31.8852 19.6332 31.9309 19.3135 31.9309 18.9937V17.6235H32.1593ZM26.4499 18.9937V17.6235H31.0174V18.9937C31.0174 20.2727 30.0125 21.2775 28.7336 21.2775C27.4547 21.2775 26.4499 20.2727 26.4499 18.9937ZM25.5363 29.9559V29.0424H32.8444V29.9559H25.5363ZM32.8444 28.1289H25.5363V25.8451H32.8444V28.1289ZM33.9406 24.9316H24.4401L23.9834 24.0181H34.3974L33.9406 24.9316ZM22.339 23.1045V22.191H36.0417V23.1045H22.339Z" fill="#8A8CDC"/>
<path d="M19.5984 37.7207C19.5984 37.9948 19.4157 38.1775 19.1416 38.1775C18.8676 38.1775 18.6849 37.9948 18.6849 37.7207V30.4126H19.1416C19.644 30.4126 20.0551 30.0016 20.0551 29.4991V28.5856C20.0551 28.0832 19.644 27.6721 19.1416 27.6721H11.8335L11.3768 18.0802C11.3768 17.3037 10.783 16.71 10.0065 16.71C9.23001 16.71 8.63623 17.3037 8.63623 18.0802V18.537H9.54974V18.0802C9.54974 17.8062 9.73244 17.6235 10.0065 17.6235C10.2806 17.6235 10.4633 17.8062 10.4633 18.0802L10.92 28.1289V30.4126H11.8335V37.7207C11.8335 37.9948 11.6508 38.1775 11.3768 38.1775C11.1027 38.1775 10.92 37.9948 10.92 37.7207V37.264H10.0065V37.7207C10.0065 38.4972 10.6003 39.091 11.3768 39.091C12.1533 39.091 12.747 38.4972 12.747 37.7207V30.4126H17.7713V37.7207C17.7713 38.4972 18.3651 39.091 19.1416 39.091C19.9181 39.091 20.5119 38.4972 20.5119 37.7207V37.264H19.5984V37.7207ZM11.8335 28.5856H19.1416V29.4991H11.8335V28.5856Z" fill="#8A8CDC"/>
<path d="M26.9067 13.33C26.6327 13.604 26.45 14.0151 26.45 14.4262C26.45 14.8373 26.6327 15.2484 26.9067 15.5224L27.5005 16.1162L28.1399 15.4767L27.5462 14.883C27.4091 14.7459 27.3635 14.6089 27.3635 14.4262C27.3635 14.2435 27.4091 14.1065 27.5462 13.9694L27.8202 13.6954C28.0943 13.4213 28.277 13.0103 28.277 12.5992C28.277 12.1881 28.0943 11.777 27.8202 11.503L27.2264 10.9092L26.587 11.5486L27.1808 12.1424C27.3178 12.2794 27.3635 12.4165 27.3635 12.5992C27.3635 12.7819 27.3178 12.9189 27.1808 13.0559L26.9067 13.33Z" fill="#8A8CDC"/>
<path d="M29.6472 13.33C29.3731 13.604 29.1904 14.0151 29.1904 14.4262C29.1904 14.8373 29.3731 15.2484 29.6472 15.5224L30.241 16.1162L30.8804 15.4767L30.2866 14.883C30.1496 14.7459 30.1039 14.6089 30.1039 14.4262C30.1039 14.2435 30.1496 14.1065 30.2866 13.9694L30.5607 13.6954C30.8348 13.4213 31.0175 13.0103 31.0175 12.5992C31.0175 12.1881 30.8348 11.777 30.5607 11.503L29.9669 10.9092L29.3275 11.5486L29.9212 12.1424C30.0583 12.2794 30.1039 12.4165 30.1039 12.5992C30.1039 12.7819 30.0583 12.9189 29.9212 13.0559L29.6472 13.33Z" fill="#8A8CDC"/>
</svg>
