<svg width="34" height="34" viewBox="0 0 34 34" fill="none" xmlns="http://www.w3.org/2000/svg">
<circle cx="17" cy="17.0001" r="17" fill="white"/>
<path d="M20.4273 9.35071H13.5718C11.2437 9.35071 9.34961 11.2449 9.34961 13.573V20.4285C9.34961 22.7566 11.2437 24.6507 13.5718 24.6507H20.4273C22.7555 24.6507 24.6496 22.7566 24.6496 20.4285V13.573C24.6497 11.2449 22.7555 9.35071 20.4273 9.35071ZM23.2922 20.4285C23.2922 22.0081 22.007 23.2932 20.4274 23.2932H13.5718C11.9922 23.2933 10.7071 22.0081 10.7071 20.4285V13.573C10.7071 11.9934 11.9922 10.7082 13.5718 10.7082H20.4273C22.0069 10.7082 23.2921 11.9934 23.2921 13.573V20.4285H23.2922Z" fill="#292929"/>
<path d="M17 13.0577C14.8262 13.0577 13.0576 14.8263 13.0576 17.0002C13.0576 19.174 14.8262 20.9424 17 20.9424C19.1739 20.9424 20.9425 19.174 20.9425 17.0002C20.9425 14.8263 19.1739 13.0577 17 13.0577ZM17 19.5848C15.5748 19.5848 14.4151 18.4253 14.4151 17.0001C14.4151 15.5747 15.5747 14.4151 17 14.4151C18.4254 14.4151 19.585 15.5747 19.585 17.0001C19.585 18.4253 18.4253 19.5848 17 19.5848Z" fill="#292929"/>
<path d="M21.1078 11.9073C20.8463 11.9073 20.5893 12.0132 20.4046 12.1988C20.219 12.3834 20.1123 12.6404 20.1123 12.9028C20.1123 13.1645 20.2191 13.4214 20.4046 13.6069C20.5892 13.7915 20.8463 13.8983 21.1078 13.8983C21.3702 13.8983 21.6264 13.7915 21.8119 13.6069C21.9974 13.4214 22.1033 13.1644 22.1033 12.9028C22.1033 12.6404 21.9974 12.3834 21.8119 12.1988C21.6273 12.0132 21.3702 11.9073 21.1078 11.9073Z" fill="#292929"/>
</svg>
