<svg width="50" height="50" viewBox="0 0 50 50" fill="none" xmlns="http://www.w3.org/2000/svg">
<circle cx="25" cy="25" r="25" fill="white"/>
<path d="M38.626 30.3288C38.2389 28.2964 36.4485 26.8447 34.3677 26.8447H30.9804C28.8997 26.8447 27.1093 28.3448 26.7221 30.3288C26.1899 30.474 25.8027 30.9579 25.8027 31.5385C25.8027 31.8773 25.9479 32.1676 26.1415 32.4096C25.9479 32.6515 25.8027 32.9418 25.8027 33.2806C25.8027 33.8612 26.1899 34.3451 26.7221 34.4903C27.1093 36.5227 28.8997 37.9744 30.9804 37.9744H34.3677C36.4485 37.9744 38.2389 36.4743 38.626 34.4903C39.1583 34.3451 39.5454 33.8612 39.5454 33.2806C39.5454 32.9418 39.4003 32.6515 39.2067 32.4096C39.4003 32.1676 39.5454 31.8773 39.5454 31.5385C39.5454 31.0062 39.1583 30.474 38.626 30.3288ZM30.9804 27.7157H34.3677C35.9646 27.7157 37.3195 28.7803 37.755 30.2804H37.6098L37.5131 30.1836C37.2711 29.9417 36.9808 29.8449 36.6904 29.8449H36.4485C36.1581 29.8449 35.8678 29.9417 35.6259 30.1836C35.5775 30.232 35.4807 30.2804 35.4323 30.2804H35.1904C35.0936 30.2804 35.0452 30.232 34.9968 30.1836C34.7548 29.9417 34.4645 29.8449 34.1742 29.8449H33.9322C33.6419 29.8449 33.3515 29.9417 33.1096 30.1836C33.0612 30.232 32.9644 30.2804 32.916 30.2804H32.6741C32.5773 30.2804 32.5289 30.232 32.4805 30.1836C32.2386 29.9417 31.9482 29.8449 31.6579 29.8449H31.4159C31.1256 29.8449 30.8353 29.9417 30.5933 30.1836C30.5449 30.232 30.4482 30.2804 30.3998 30.2804H30.1578C30.061 30.2804 30.0126 30.232 29.9643 30.1836C29.7223 29.9417 29.432 29.8449 29.1416 29.8449H28.8997C28.6093 29.8449 28.319 29.9417 28.0771 30.1836L27.7867 30.2804H27.6415C28.0287 28.7803 29.3836 27.7157 30.9804 27.7157ZM27.1093 31.1514H28.1254L28.4642 30.8127C28.5126 30.7643 28.6093 30.7159 28.6577 30.7159H28.8997C28.9965 30.7159 29.0449 30.7643 29.0932 30.8127C29.3352 31.0546 29.6255 31.1514 29.9159 31.1514H30.2062C30.4965 31.1514 30.7869 31.0546 31.0288 30.8127C31.0772 30.7643 31.174 30.7159 31.2224 30.7159H31.4643C31.5611 30.7159 31.6095 30.7643 31.6579 30.8127C31.8998 31.0546 32.1902 31.1514 32.4805 31.1514H32.7225C33.0128 31.1514 33.3032 31.0546 33.5451 30.8127C33.5935 30.7643 33.6903 30.7159 33.7387 30.7159H34.0774C34.1742 30.7159 34.2226 30.7643 34.2709 30.8127C34.5129 31.0546 34.8032 31.1514 35.0936 31.1514H35.3355C35.6259 31.1514 35.9162 31.0546 36.1581 30.8127C36.2065 30.7643 36.3033 30.7159 36.3517 30.7159H36.5937C36.6904 30.7159 36.7388 30.7643 36.7872 30.8127L37.1259 31.1514H38.1421C38.3841 31.1514 38.5776 31.345 38.5776 31.5869C38.5776 31.8289 38.3841 32.0224 38.1421 32.0224H27.1093C26.8673 32.0224 26.6738 31.8289 26.6738 31.5869C26.6738 31.345 26.8673 31.1514 27.1093 31.1514ZM34.3677 37.1517H30.9804C29.3836 37.1517 28.0287 36.0872 27.5932 34.5871H37.7066C37.3195 36.0872 35.9646 37.1517 34.3677 37.1517ZM38.2389 33.7161H27.1093C26.8673 33.7161 26.6738 33.5225 26.6738 33.2806C26.6738 33.0386 26.8673 32.8451 27.1093 32.8451H38.2873C38.5292 32.8451 38.7228 33.0386 38.7228 33.2806C38.6744 33.5225 38.4809 33.7161 38.2389 33.7161Z" fill="#57B6BB"/>
<path d="M26.2385 34.7024H24.4965V22.2222H30.1581V26.4277C30.3033 26.4277 30.4484 26.4277 30.5936 26.4277C30.7871 26.4277 30.9323 26.4277 31.0775 26.4761V22.2706H31.9969C32.2388 22.2706 32.4808 22.0286 32.4808 21.7867V17.48C32.4808 17.238 32.2388 16.9961 31.9969 16.9961H26.6256C27.0611 16.5122 27.3515 15.8347 27.3515 15.1089C27.3515 13.5604 26.0933 12.3023 24.5449 12.3023C23.6255 12.3023 22.8028 12.7378 22.3189 13.4152C21.7867 12.4474 20.7705 11.8184 19.6091 11.8184C17.9155 11.8184 16.5606 13.1733 16.5606 14.8669C16.5606 15.6895 16.8993 16.4154 17.4316 16.9961H12.3023C12.0603 16.9961 11.8184 17.238 11.8184 17.48V21.6899C11.8184 21.9318 12.0603 22.1738 12.3023 22.1738H13.2217V35.1378C13.2217 35.3798 13.4636 35.6217 13.7056 35.6217H26.5772C26.4321 35.3314 26.3353 35.0411 26.2385 34.7024ZM31.5614 17.9639V21.2544H24.4965V17.9639H31.5614ZM22.6577 15.1573C22.6577 14.0927 23.4803 13.2701 24.5449 13.2701C25.6094 13.2701 26.4321 14.0927 26.4321 15.1573C26.4321 16.2218 25.6094 17.0444 24.5449 17.0444H22.6577V15.1573ZM19.5607 12.7862C20.7221 12.7862 21.6899 13.7056 21.6899 14.9153V17.0444H19.5607C18.3994 17.0444 17.4316 16.1251 17.4316 14.9153C17.48 13.754 18.3994 12.7862 19.5607 12.7862ZM19.8027 34.7024H14.1895V22.2222H19.8511V34.7024H19.8027ZM19.8027 21.2544H12.7378V17.9639H19.8027V21.2544ZM23.5771 34.7024H20.7705V22.2222H23.5771V34.7024ZM23.5771 21.2544H20.7705V17.9639H23.5771V21.2544Z" fill="#57B6BB"/>
</svg>
