<svg width="50" height="50" viewBox="0 0 50 50" fill="none" xmlns="http://www.w3.org/2000/svg">
<circle cx="25" cy="25" r="25" fill="white"/>
<path d="M14.1667 39.3024L14.625 40.618C14.7083 40.8727 15 41 15.5 41H34.5C35 41 35.2917 40.8727 35.375 40.618L35.8333 39.3024C36.4583 39.3024 37 38.7507 37 38.1141V37.5199C37 36.8833 36.4583 36.3316 35.8333 36.3316H35.25V23.9814C35.25 23.7268 35.0833 23.557 34.8333 23.557H33.8333V15.3236C33.8333 15.069 33.6667 14.8992 33.4167 14.8992H30.4583V9.4244C30.4583 9.16976 30.2917 9 30.0417 9H19.9583C19.7083 9 19.5417 9.16976 19.5417 9.4244V14.8992H16.5833C16.3333 14.8992 16.1667 15.069 16.1667 15.3236V23.5995H15.1667C14.9167 23.5995 14.75 23.7692 14.75 24.0239V36.374H14.1667C13.5417 36.374 13 36.9257 13 37.5623V38.1141C13.0417 38.7507 13.5417 39.3024 14.1667 39.3024ZM34.5417 40.1512H15.5C15.4583 40.1512 15.375 40.1512 15.3333 40.1512L15.0417 39.3024H34.9583L34.6667 40.1512C34.625 40.1512 34.5833 40.1512 34.5417 40.1512ZM30.9167 30.9416C30.6667 30.9416 30.5 31.1114 30.5 31.366C30.5 32.2573 29.7917 32.9363 28.9583 32.9363C28.0833 32.9363 27.4167 32.2149 27.4167 31.366C27.4167 31.1114 27.25 30.9416 27 30.9416C26.75 30.9416 26.5833 31.1114 26.5833 31.366C26.5833 32.2573 25.875 32.9363 25.0417 32.9363C24.2083 32.9363 23.5 32.2149 23.5 31.366C23.5 31.1114 23.3333 30.9416 23.0833 30.9416C22.8333 30.9416 22.6667 31.1114 22.6667 31.366C22.6667 32.2573 21.9583 32.9363 21.125 32.9363C20.25 32.9363 19.5833 32.2149 19.5833 31.366C19.5833 31.1114 19.4167 30.9416 19.1667 30.9416C18.9167 30.9416 18.75 31.1114 18.75 31.366C18.75 32.2573 18.0417 32.9363 17.2083 32.9363C16.3333 32.9363 15.6667 32.2149 15.6667 31.366V29.0743C16.0833 29.4562 16.625 29.6684 17.2083 29.6684C18.0417 29.6684 18.75 29.244 19.1667 28.6074C19.5833 29.244 20.3333 29.6684 21.125 29.6684C21.9583 29.6684 22.6667 29.244 23.0833 28.6074C23.5 29.244 24.25 29.6684 25.0417 29.6684C25.8333 29.6684 26.5833 29.244 27 28.6074C27.4167 29.244 28.1667 29.6684 28.9583 29.6684C29.7917 29.6684 30.5 29.244 30.9167 28.6074C31.3333 29.244 32.0833 29.6684 32.875 29.6684C33.4583 29.6684 34 29.4562 34.4167 29.0743V31.4085C34.4167 32.2997 33.7083 32.9788 32.875 32.9788C32 32.9788 31.3333 32.2573 31.3333 31.4085C31.3333 31.1538 31.1667 30.9416 30.9167 30.9416ZM29.6667 9.84881V11.6313C29.6667 12.3528 29.0833 12.9045 28.4167 12.9045C27.75 12.9045 27.1667 12.3103 27.1667 11.6313C27.1667 11.3767 27 11.2069 26.75 11.2069C26.5 11.2069 26.3333 11.3767 26.3333 11.6313C26.3333 12.3528 25.75 12.9045 25.0833 12.9045C24.375 12.9045 23.8333 12.3103 23.8333 11.6313C23.8333 11.3767 23.6667 11.2069 23.4167 11.2069C23.1667 11.2069 23 11.3767 23 11.6313C23 12.3528 22.4167 12.9045 21.75 12.9045C21.0833 12.9045 20.5 12.3103 20.5 11.6313V9.84881H29.6667V9.84881ZM20.375 13.3289C20.7083 13.626 21.1667 13.7958 21.625 13.7958C22.3333 13.7958 22.9167 13.4562 23.2917 12.9045C23.6667 13.4138 24.2917 13.7958 24.9583 13.7958C25.6667 13.7958 26.25 13.4562 26.625 12.9045C27 13.4138 27.625 13.7958 28.2917 13.7958C28.75 13.7958 29.2083 13.626 29.5417 13.3714V14.9416H20.375V13.3289ZM33 15.748V18.931C33 19.6525 32.4167 20.2042 31.75 20.2042C31.0833 20.2042 30.5 19.6101 30.5 18.931C30.5 18.6764 30.3333 18.5066 30.0833 18.5066C29.8333 18.5066 29.6667 18.6764 29.6667 18.931C29.6667 19.6525 29.0833 20.2042 28.4167 20.2042C27.75 20.2042 27.1667 19.6101 27.1667 18.931C27.1667 18.6764 27 18.5066 26.75 18.5066C26.5 18.5066 26.3333 18.6764 26.3333 18.931C26.3333 19.6525 25.75 20.2042 25.0833 20.2042C24.375 20.2042 23.8333 19.6101 23.8333 18.931C23.8333 18.6764 23.6667 18.5066 23.4167 18.5066C23.1667 18.5066 23 18.6764 23 18.931C23 19.6525 22.4167 20.2042 21.75 20.2042C21.0833 20.2042 20.5 19.6101 20.5 18.931C20.5 18.6764 20.3333 18.5066 20.0833 18.5066C19.8333 18.5066 19.6667 18.6764 19.6667 18.931C19.6667 19.6525 19.0833 20.2042 18.4167 20.2042C17.75 20.2042 17.1667 19.6101 17.1667 18.931V15.7905H33V15.748ZM17.0417 20.5862C17.375 20.8833 17.8333 21.053 18.2917 21.053C19 21.053 19.5833 20.7135 19.9583 20.1618C20.3333 20.6711 20.9583 21.053 21.625 21.053C22.3333 21.053 22.9167 20.7135 23.2917 20.1618C23.6667 20.6711 24.2917 21.053 24.9583 21.053C25.6667 21.053 26.25 20.7135 26.625 20.1618C27 20.6711 27.625 21.053 28.2917 21.053C28.9583 21.053 29.5833 20.7135 29.9583 20.1618C30.3333 20.6711 30.9583 21.053 31.625 21.053C32.0833 21.053 32.5417 20.8833 32.875 20.6286V23.5995H17.0417V20.5862ZM34.4583 24.4058V27.2069C34.4583 28.0981 33.75 28.7772 32.9167 28.7772C32.0417 28.7772 31.375 28.0557 31.375 27.2069C31.375 26.9523 31.2083 26.7825 30.9583 26.7825C30.7083 26.7825 30.5417 26.9523 30.5417 27.2069C30.5417 28.0981 29.8333 28.7772 29 28.7772C28.125 28.7772 27.4583 28.0557 27.4583 27.2069C27.4583 26.9523 27.2917 26.7825 27.0417 26.7825C26.7917 26.7825 26.625 26.9523 26.625 27.2069C26.625 28.0981 25.9167 28.7772 25.0833 28.7772C24.25 28.7772 23.5417 28.0557 23.5417 27.2069C23.5417 26.9523 23.375 26.7825 23.125 26.7825C22.875 26.7825 22.7083 26.9523 22.7083 27.2069C22.7083 28.0981 22 28.7772 21.1667 28.7772C20.2917 28.7772 19.625 28.0557 19.625 27.2069C19.625 26.9523 19.4583 26.7825 19.2083 26.7825C18.9583 26.7825 18.7917 26.9523 18.7917 27.2069C18.7917 28.0981 18.0833 28.7772 17.25 28.7772C16.375 28.7772 15.7083 28.0557 15.7083 27.2069V24.4483H34.4583V24.4058ZM15.5833 33.191C16 33.5729 16.5417 33.7851 17.125 33.7851C17.9583 33.7851 18.6667 33.3607 19.0833 32.7241C19.5 33.3607 20.25 33.7851 21.0417 33.7851C21.875 33.7851 22.5833 33.3607 23 32.7241C23.4167 33.3607 24.1667 33.7851 24.9583 33.7851C25.75 33.7851 26.5 33.3607 26.9167 32.7241C27.3333 33.3607 28.0833 33.7851 28.875 33.7851C29.7083 33.7851 30.4167 33.3607 30.8333 32.7241C31.25 33.3607 32 33.7851 32.7917 33.7851C33.375 33.7851 33.9167 33.5729 34.3333 33.191V36.3316H15.5833V33.191ZM13.875 37.5623C13.875 37.3926 14.0417 37.2228 14.2083 37.2228H35.875C36.0417 37.2228 36.2083 37.3926 36.2083 37.5623V38.1141C36.2083 38.2838 36.0417 38.4536 35.875 38.4536H14.2083C14.0417 38.4536 13.875 38.2838 13.875 38.1141V37.5623V37.5623Z" fill="#E58383"/>
</svg>
