<svg width="50" height="50" viewBox="0 0 50 50" fill="none" xmlns="http://www.w3.org/2000/svg">
<circle cx="25" cy="25" r="25" fill="white"/>
<path d="M35.2454 19.1399C35.5771 16.5889 34.464 14.2622 32.2712 12.9183C32.07 12.793 31.8604 12.6734 31.6482 12.5576C28.2752 10.7167 24.2485 10.3537 20.6006 11.5612C16.9033 12.7849 13.9649 15.417 12.3265 18.9721C9.41722 25.2908 11.6683 32.8466 17.5627 36.5475C17.8115 36.7039 18.0636 36.8519 18.3166 36.99C18.499 37.0895 18.6819 37.1835 18.8637 37.2724C21.175 38.4049 23.8295 38.0873 25.7904 36.4436C27.8514 34.7158 28.6639 32.0156 27.9104 29.3961C27.9104 29.3961 27.9104 29.3961 27.9102 29.3954C27.5819 28.2582 27.6395 27.271 28.0811 26.4618C28.5214 25.6551 29.3197 25.0741 30.4545 24.7348C33.062 23.9536 34.8977 21.8099 35.2454 19.1399ZM27.0632 25.9062C26.478 26.9783 26.3857 28.2963 26.7963 29.7177C27.4206 31.8893 26.7495 34.126 25.0454 35.5544C23.4163 36.92 21.2964 37.1732 19.373 36.2305C18.974 36.036 18.5713 35.8117 18.1798 35.5657C12.7771 32.1732 10.7139 25.2482 13.3802 19.4575C14.8823 16.197 17.5761 13.7837 20.965 12.6619C24.3089 11.5549 28.0004 11.8879 31.0926 13.5756C31.2849 13.6805 31.4752 13.7882 31.6618 13.9049C33.4569 15.0047 34.3666 16.9062 34.095 18.9901C33.808 21.2003 32.2853 22.9762 30.1222 23.6238C28.7047 24.0475 27.647 24.8366 27.0632 25.9062Z" fill="#9FCE9E"/>
<path d="M30.6951 14.3044C29.5817 13.6967 28.181 14.1083 27.5733 15.2217C26.9656 16.3351 27.3775 17.7352 28.4909 18.3429C29.6043 18.9506 31.0042 18.5392 31.6118 17.4258C32.2195 16.3124 31.8084 14.912 30.6951 14.3044ZM29.0465 17.3249C28.4942 17.0235 28.2899 16.3295 28.5913 15.7772C28.8927 15.225 29.5872 15.0209 30.1395 15.3223C30.6917 15.6237 30.8953 16.318 30.5939 16.8702C30.2925 17.4225 29.5987 17.6263 29.0465 17.3249Z" fill="#9FCE9E"/>
<path d="M21.4731 31.2018C20.3597 30.5942 18.9593 31.0052 18.3517 32.1186C17.744 33.232 18.1556 34.6327 19.269 35.2404C20.3824 35.848 21.7825 35.4362 22.3902 34.3228C22.9979 33.2094 22.5865 31.8095 21.4731 31.2018ZM19.8245 34.2224C19.2723 33.921 19.0682 33.2264 19.3696 32.6742C19.671 32.122 20.3653 31.9184 20.9175 32.2198C21.4698 32.5212 21.6736 33.215 21.3722 33.7672C21.0708 34.3194 20.3768 34.5238 19.8245 34.2224Z" fill="#9FCE9E"/>
<path d="M18.5528 21.2632C19.1604 20.1498 18.7494 18.7494 17.636 18.1418C16.5226 17.5341 15.1219 17.9457 14.5142 19.0591C13.9066 20.1725 14.3184 21.5726 15.4318 22.1803C16.5452 22.788 17.9451 22.3766 18.5528 21.2632ZM15.9874 21.1623C15.4352 20.8609 15.2308 20.1669 15.5322 19.6147C15.8336 19.0624 16.5282 18.8583 17.0804 19.1597C17.6326 19.4611 17.8362 20.1554 17.5348 20.7076C17.2334 21.2599 16.5396 21.4637 15.9874 21.1623Z" fill="#9FCE9E"/>
<path d="M15.0986 25.2783C13.8818 25.6367 13.1827 26.9176 13.5401 28.1338C13.713 28.7237 14.106 29.2104 14.6453 29.5047C15.1846 29.7991 15.8064 29.8655 16.3957 29.6924C16.985 29.5192 17.472 29.127 17.7663 28.5877C18.0606 28.0484 18.1279 27.4264 17.9542 26.8368C17.5966 25.6198 16.3157 24.9207 15.0986 25.2783ZM16.0688 28.5798C15.4833 28.7519 14.8247 28.3924 14.6527 27.8069C14.4755 27.2038 14.8221 26.5686 15.4256 26.3908C16.0289 26.2144 16.6637 26.5608 16.8417 27.1637C16.9277 27.4565 16.8943 27.7647 16.7483 28.0321C16.6024 28.2995 16.3615 28.4938 16.0688 28.5798Z" fill="#9FCE9E"/>
<path d="M21.6196 13.3307C20.4034 13.6881 19.7043 14.969 20.0611 16.1863C20.2399 16.7948 20.6499 17.274 21.1669 17.5562C21.6838 17.8383 22.3082 17.9236 22.9167 17.7448C23.5065 17.5719 23.9932 17.1789 24.2876 16.6396C24.5819 16.1003 24.6489 15.4788 24.4752 14.8892C24.1294 13.7096 22.7988 12.9834 21.6196 13.3307ZM22.5898 16.6322C21.9859 16.8097 21.3511 16.4633 21.1737 15.8594C20.9967 15.2557 21.3434 14.6205 21.9466 14.4433C22.2393 14.3572 22.5475 14.3906 22.8149 14.5366C23.0823 14.6825 23.2766 14.9234 23.3627 15.2161C23.4487 15.5089 23.4156 15.8166 23.2696 16.084C23.1237 16.3514 22.8825 16.5462 22.5898 16.6322Z" fill="#9FCE9E"/>
<path d="M37.7964 27.1232L38.6144 24.2938C39.1524 24.0945 39.6273 23.7177 39.923 23.1759C40.4743 22.1659 40.2869 19.0767 40.2437 18.468C40.2163 18.0738 39.7326 17.8111 39.3867 18.0003C38.8511 18.2938 36.1524 19.8071 35.6012 20.8171C35.3054 21.359 35.2454 21.9623 35.3688 22.5226L33.4318 24.7411C33.4156 24.7597 33.4111 24.7845 33.3976 24.8046C33.3803 24.8302 33.356 24.8499 33.3427 24.8783L27.6792 37.0505C27.3251 37.8294 27.6364 38.7612 28.388 39.1714C29.14 39.5819 30.0922 39.3397 30.5586 38.6162L37.7292 27.2723C37.7459 27.2459 37.7493 27.2148 37.7614 27.1864C37.7711 27.1641 37.7895 27.1469 37.7964 27.1232ZM29.5814 37.9919C29.4448 38.2032 29.1648 38.2742 28.9436 38.1535C28.7224 38.0327 28.6311 37.7591 28.7329 37.5347L34.1336 25.9279L36.4186 27.175L29.5814 37.9919ZM34.7807 24.9599L35.9377 23.6349C36.1194 23.8378 36.33 24.0198 36.5823 24.1575C36.8349 24.2954 37.102 24.374 37.3712 24.4171L36.8827 26.1071L34.7807 24.9599ZM37.1379 23.1396C36.5077 22.7956 36.2752 22.0029 36.6191 21.3727C36.8468 20.9557 38.0452 20.1344 39.1337 19.4828C39.175 20.751 39.133 22.2028 38.9051 22.6203C38.5611 23.2506 37.7682 23.4836 37.1379 23.1396Z" fill="#9FCE9E"/>
</svg>
