<svg width="50" height="50" viewBox="0 0 50 50" fill="none" xmlns="http://www.w3.org/2000/svg">
<circle cx="25" cy="25" r="25" fill="white"/>
<path d="M38.781 11.2191V38.781H11.2191V11.2191H38.781ZM38.781 10.4546H11.2191C10.7986 10.4546 10.4546 10.7986 10.4546 11.2191V38.781C10.4546 39.2015 10.7986 39.5455 11.2191 39.5455H38.781C39.2015 39.5455 39.5455 39.2015 39.5455 38.781V11.2191C39.5455 10.7986 39.2015 10.4546 38.781 10.4546Z" fill="#F4976E"/>
<path d="M25.4017 18.903C25.4017 18.5972 25.287 18.3296 25.0958 18.1385C25.287 17.9473 25.4017 17.6798 25.4017 17.3739C25.4017 16.8388 25.0576 16.4183 24.5989 16.2653C24.2166 14.4687 22.6493 13.1689 20.7762 13.1689H17.7562C15.8831 13.1689 14.3158 14.5069 13.9717 16.2653C13.513 16.4183 13.1689 16.8388 13.1689 17.3739C13.1689 17.6798 13.2836 17.9473 13.4748 18.1385C13.2836 18.3296 13.1689 18.5972 13.1689 18.903C13.1689 19.4382 13.513 19.8587 13.9717 20.0116C14.3158 21.8083 15.9213 23.108 17.7562 23.108H20.7762C22.6111 23.108 24.2166 21.7701 24.5607 20.0116C25.0576 19.8587 25.4017 19.4 25.4017 18.903ZM17.7562 13.9335H20.7762C22.1906 13.9335 23.4138 14.8892 23.7579 16.2271H23.605L23.5285 16.1507C23.3374 15.9595 23.0698 15.8449 22.8022 15.8449H22.5728C22.3052 15.8449 22.0377 15.9595 21.8465 16.1507C21.8083 16.1889 21.7318 16.2271 21.6554 16.2271H21.426C21.3496 16.2271 21.2731 16.1889 21.2349 16.1507C21.0438 15.9595 20.7762 15.8449 20.5086 15.8449H20.2792C20.0116 15.8449 19.744 15.9595 19.5529 16.1507C19.5147 16.1889 19.4382 16.2271 19.3618 16.2271H19.1324C19.0559 16.2271 18.9795 16.1889 18.9413 16.1507C18.7501 15.9595 18.4825 15.8449 18.2149 15.8449H17.9856C17.718 15.8449 17.4504 15.9595 17.2593 16.1507C17.221 16.1889 17.1446 16.2271 17.0681 16.2271H16.8388C16.7623 16.2271 16.6858 16.1889 16.6476 16.1507C16.4565 15.9595 16.1889 15.8449 15.9213 15.8449H15.6919C15.4244 15.8449 15.1568 15.9595 14.9656 16.1507L14.8892 16.2271H14.7363C15.1185 14.8892 16.3418 13.9335 17.7562 13.9335ZM14.3158 16.9917H15.2332L15.539 16.6858C15.5773 16.6476 15.6537 16.6094 15.7302 16.6094H15.9595C16.036 16.6094 16.1124 16.6476 16.1507 16.6858C16.3418 16.877 16.6094 16.9917 16.877 16.9917H17.1063C17.3739 16.9917 17.6415 16.877 17.8327 16.6858C17.8709 16.6476 17.9473 16.6094 18.0238 16.6094H18.2532C18.3296 16.6094 18.4061 16.6476 18.4443 16.6858C18.6354 16.877 18.903 16.9917 19.1706 16.9917H19.4C19.6676 16.9917 19.9352 16.877 20.1263 16.6858C20.1645 16.6476 20.241 16.6094 20.3174 16.6094H20.5468C20.6233 16.6094 20.6997 16.6476 20.7379 16.6858C20.9291 16.877 21.1967 16.9917 21.4643 16.9917H21.6936C21.9612 16.9917 22.2288 16.877 22.4199 16.6858C22.4582 16.6476 22.5346 16.6094 22.6111 16.6094H22.8404C22.9169 16.6094 22.9933 16.6476 23.0316 16.6858L23.3374 16.9917H24.2548C24.4842 16.9917 24.6371 17.1446 24.6371 17.3739C24.6371 17.6033 24.4842 17.7562 24.2548 17.7562H14.3158C14.0864 17.7562 13.9335 17.6033 13.9335 17.3739C13.9335 17.1446 14.0864 16.9917 14.3158 16.9917ZM14.3158 18.5208H24.2548C24.4842 18.5208 24.6371 18.6737 24.6371 18.903C24.6371 19.1324 24.4842 19.2853 24.2548 19.2853H14.3158C14.0864 19.2853 13.9335 19.1324 13.9335 18.903C13.9335 18.6737 14.0864 18.5208 14.3158 18.5208ZM20.7762 22.3435H17.7562C16.3418 22.3435 15.1185 21.3878 14.7745 20.0498H23.7961C23.4138 21.3878 22.1906 22.3435 20.7762 22.3435Z" fill="#F4976E"/>
<path d="M36.0289 30.0266C35.6849 28.2299 34.0793 26.9302 32.2444 26.9302H29.2245C27.3896 26.9302 25.784 28.2681 25.44 30.0266C24.9813 30.1795 24.6372 30.6 24.6372 31.1352C24.6372 31.441 24.7519 31.7086 24.943 31.8997C24.7519 32.0908 24.6372 32.3584 24.6372 32.6643C24.6372 33.1994 24.9813 33.6199 25.44 33.7728C25.784 35.5695 27.3896 36.8693 29.2245 36.8693H32.2444C34.0793 36.8693 35.6849 35.5313 36.0289 33.7728C36.4876 33.6199 36.8317 33.1994 36.8317 32.6643C36.8317 32.3584 36.717 32.0908 36.5259 31.8997C36.717 31.7086 36.8317 31.441 36.8317 31.1352C36.8699 30.6 36.5259 30.1795 36.0289 30.0266ZM29.2245 27.6947H32.2444C33.6588 27.6947 34.8821 28.6504 35.2261 29.9884H35.0732L34.9968 29.9119C34.8056 29.7208 34.5381 29.6061 34.2705 29.6061H34.0411C33.7735 29.6061 33.5059 29.7208 33.3148 29.9119C33.2766 29.9501 33.2001 29.9884 33.1236 29.9884H32.8943C32.8178 29.9884 32.7414 29.9501 32.7031 29.9119C32.512 29.7208 32.2444 29.6061 31.9768 29.6061H31.7475C31.4799 29.6061 31.2123 29.7208 31.0212 29.9119C30.9829 29.9501 30.9065 29.9884 30.83 29.9884H30.6007C30.5242 29.9884 30.4477 29.9501 30.4095 29.9119C30.2184 29.7208 29.9508 29.6061 29.6832 29.6061H29.4538C29.1862 29.6061 28.9187 29.7208 28.7275 29.9119C28.6893 29.9501 28.6128 29.9884 28.5364 29.9884H28.307C28.2306 29.9884 28.1541 29.9501 28.1159 29.9119C27.9247 29.7208 27.6572 29.6061 27.3896 29.6061H27.1602C26.8926 29.6061 26.625 29.7208 26.4339 29.9119L26.3574 29.9884H26.2045C26.5868 28.6504 27.8101 27.6947 29.2245 27.6947ZM25.784 30.7529H26.7015L27.0073 30.4471C27.0455 30.4089 27.122 30.3706 27.1984 30.3706H27.4278C27.5042 30.3706 27.5807 30.4089 27.6189 30.4471C27.8101 30.6382 28.0777 30.7529 28.3452 30.7529H28.5746C28.8422 30.7529 29.1098 30.6382 29.3009 30.4471C29.3392 30.4089 29.4156 30.3706 29.4921 30.3706H29.7214C29.7979 30.3706 29.8743 30.4089 29.9126 30.4471C30.1037 30.6382 30.3713 30.7529 30.6389 30.7529H30.8682C31.1358 30.7529 31.4034 30.6382 31.5946 30.4471C31.6328 30.4089 31.7092 30.3706 31.7857 30.3706H32.0151C32.0915 30.3706 32.168 30.4089 32.2062 30.4471C32.3973 30.6382 32.6649 30.7529 32.9325 30.7529H33.1619C33.4295 30.7529 33.6971 30.6382 33.8882 30.4471C33.9264 30.4089 34.0029 30.3706 34.0793 30.3706H34.3087C34.3851 30.3706 34.4616 30.4089 34.4998 30.4471L34.8056 30.7529H35.7231C35.9525 30.7529 36.1054 30.9058 36.1054 31.1352C36.1054 31.3645 35.9525 31.5174 35.7231 31.5174H25.784C25.5547 31.5174 25.4018 31.3645 25.4018 31.1352C25.4018 30.9058 25.5547 30.7529 25.784 30.7529ZM32.2444 36.1047H29.2245C27.8101 36.1047 26.5868 35.149 26.2428 33.8111H35.2644C34.8821 35.149 33.6588 36.1047 32.2444 36.1047ZM35.7231 33.0465H25.784C25.5547 33.0465 25.4018 32.8936 25.4018 32.6643C25.4018 32.4349 25.5547 32.282 25.784 32.282H35.7231C35.9525 32.282 36.1054 32.4349 36.1054 32.6643C36.1054 32.8936 35.9142 33.0465 35.7231 33.0465Z" fill="#F4976E"/>
<path d="M19.973 25.44C19.8201 24.9813 19.3996 24.6372 18.8645 24.6372C18.5586 24.6372 18.291 24.7519 18.0999 24.943C17.9088 24.7519 17.6412 24.6372 17.3354 24.6372C16.8002 24.6372 16.3797 24.9813 16.2268 25.44C14.4301 25.784 13.1304 27.3896 13.1304 29.2245V32.2444C13.1304 34.0793 14.4683 35.6849 16.2268 36.0289C16.3797 36.4876 16.8002 36.8317 17.3354 36.8317C17.6412 36.8317 17.9088 36.717 18.0999 36.5259C18.291 36.717 18.5586 36.8317 18.8645 36.8317C19.3996 36.8317 19.8201 36.4876 19.973 36.0289C21.7697 35.6849 23.0694 34.0793 23.0694 32.2444V29.2245C23.1077 27.3896 21.7697 25.784 19.973 25.44ZM13.9331 32.2444V29.2245C13.9331 27.8101 14.8888 26.5868 16.2268 26.2428V26.3957L16.1503 26.4721C15.9592 26.6633 15.8445 26.9308 15.8445 27.1984V27.4278C15.8445 27.6954 15.9592 27.963 16.1503 28.1541C16.1885 28.1923 16.2268 28.2688 16.2268 28.3452V28.5746C16.2268 28.6511 16.1885 28.7275 16.1503 28.7657C15.9592 28.9569 15.8445 29.2245 15.8445 29.4921V29.7214C15.8445 29.989 15.9592 30.2566 16.1503 30.4477C16.1885 30.486 16.2268 30.5624 16.2268 30.6389V30.8682C16.2268 30.9447 16.1885 31.0212 16.1503 31.0594C15.9592 31.2505 15.8445 31.5181 15.8445 31.7857V32.0151C15.8445 32.2827 15.9592 32.5502 16.1503 32.7414C16.1885 32.7796 16.2268 32.8561 16.2268 32.9325V33.1619C16.2268 33.2383 16.1885 33.3148 16.1503 33.353C15.9592 33.5441 15.8445 33.8117 15.8445 34.0793V34.3087C15.8445 34.5763 15.9592 34.8439 16.1503 35.035L16.2268 35.1115V35.2644C14.8888 34.8821 13.9331 33.6588 13.9331 32.2444ZM17.3736 36.1054C17.1442 36.1054 16.9913 35.9525 16.9913 35.7231V34.8056L16.6855 34.4998C16.6473 34.4616 16.609 34.3851 16.609 34.3087V34.0793C16.609 34.0029 16.6473 33.9264 16.6855 33.8882C16.8766 33.6971 16.9913 33.4295 16.9913 33.1619V32.9325C16.9913 32.6649 16.8766 32.3973 16.6855 32.2062C16.6473 32.168 16.609 32.0915 16.609 32.0151V31.7857C16.609 31.7092 16.6473 31.6328 16.6855 31.5946C16.8766 31.4034 16.9913 31.1358 16.9913 30.8682V30.6389C16.9913 30.3713 16.8766 30.1037 16.6855 29.9126C16.6473 29.8743 16.609 29.7979 16.609 29.7214V29.4921C16.609 29.4156 16.6473 29.3392 16.6855 29.3009C16.8766 29.1098 16.9913 28.8422 16.9913 28.5746V28.3452C16.9913 28.0777 16.8766 27.8101 16.6855 27.6189C16.6473 27.5807 16.609 27.5042 16.609 27.4278V27.1984C16.609 27.122 16.6473 27.0455 16.6855 27.0073L16.9913 26.7015V25.784C16.9913 25.5547 17.1442 25.4018 17.3736 25.4018C17.603 25.4018 17.7559 25.5547 17.7559 25.784V35.7231C17.7559 35.9142 17.5647 36.1054 17.3736 36.1054ZM19.285 35.7231C19.285 35.9525 19.132 36.1054 18.9027 36.1054C18.6733 36.1054 18.5204 35.9525 18.5204 35.7231V25.784C18.5204 25.5547 18.6733 25.4018 18.9027 25.4018C19.132 25.4018 19.285 25.5547 19.285 25.784V35.7231ZM22.3431 32.2444C22.3431 33.6588 21.3875 34.8821 20.0495 35.2261V26.2428C21.3875 26.5868 22.3431 27.8101 22.3431 29.2245V32.2444Z" fill="#F4976E"/>
<path d="M33.7343 13.9717C33.5814 13.513 33.1609 13.1689 32.6257 13.1689C32.3199 13.1689 32.0523 13.2836 31.8611 13.4748C31.67 13.2836 31.4024 13.1689 31.0966 13.1689C30.5614 13.1689 30.1409 13.513 29.988 13.9717C28.1913 14.3158 26.8916 15.9213 26.8916 17.7562V20.7762C26.8916 22.6111 28.2296 24.2166 29.988 24.5607C30.1409 25.0194 30.5614 25.3634 31.0966 25.3634C31.4024 25.3634 31.67 25.2487 31.8611 25.0576C32.0523 25.2487 32.3199 25.3634 32.6257 25.3634C33.1609 25.3634 33.5814 25.0194 33.7343 24.5607C35.531 24.2166 36.8307 22.6111 36.8307 20.7762V17.7562C36.8689 15.9213 35.531 14.3158 33.7343 13.9717ZM27.6944 20.7762V17.7562C27.6944 16.3418 28.6501 15.1185 29.988 14.7745V23.7961C28.6501 23.4138 27.6944 22.1906 27.6944 20.7762ZM31.1348 24.6371C30.9055 24.6371 30.7526 24.4842 30.7526 24.2548V14.3158C30.7526 14.0864 30.9055 13.9335 31.1348 13.9335C31.3642 13.9335 31.5171 14.0864 31.5171 14.3158V24.2548C31.5171 24.446 31.326 24.6371 31.1348 24.6371ZM33.0462 23.3374V24.2548C33.0462 24.4842 32.8933 24.6371 32.6639 24.6371C32.4345 24.6371 32.2816 24.4842 32.2816 24.2548V14.3158C32.2816 14.0864 32.4345 13.9335 32.6639 13.9335C32.8933 13.9335 33.0462 14.0864 33.0462 14.3158V15.2332L33.352 15.539C33.3902 15.5773 33.4285 15.6537 33.4285 15.7302V15.9595C33.4285 16.036 33.3902 16.1124 33.352 16.1507C33.1609 16.3418 33.0462 16.6094 33.0462 16.877V17.1063C33.0462 17.3739 33.1609 17.6415 33.352 17.8327C33.3902 17.8709 33.4285 17.9473 33.4285 18.0238V18.2532C33.4285 18.3296 33.3902 18.4061 33.352 18.4443C33.1609 18.6354 33.0462 18.903 33.0462 19.1706V19.4C33.0462 19.6676 33.1609 19.9352 33.352 20.1263C33.3902 20.1645 33.4285 20.241 33.4285 20.3174V20.5468C33.4285 20.6233 33.3902 20.6997 33.352 20.7379C33.1609 20.9291 33.0462 21.1967 33.0462 21.4642V21.6936C33.0462 21.9612 33.1609 22.2288 33.352 22.4199C33.3902 22.4582 33.4285 22.5346 33.4285 22.6111V22.8404C33.4285 22.9169 33.3902 22.9933 33.352 23.0316L33.0462 23.3374ZM36.1044 20.7762C36.1044 22.1906 35.1487 23.4138 33.8107 23.7579V23.605L33.8872 23.5285C34.0783 23.3374 34.193 23.0698 34.193 22.8022V22.5728C34.193 22.3052 34.0783 22.0377 33.8872 21.8465C33.849 21.8083 33.8107 21.7318 33.8107 21.6554V21.426C33.8107 21.3496 33.849 21.2731 33.8872 21.2349C34.0783 21.0438 34.193 20.7762 34.193 20.5086V20.2792C34.193 20.0116 34.0783 19.744 33.8872 19.5529C33.849 19.5147 33.8107 19.4382 33.8107 19.3618V19.1324C33.8107 19.0559 33.849 18.9795 33.8872 18.9413C34.0783 18.7501 34.193 18.4825 34.193 18.2149V17.9856C34.193 17.718 34.0783 17.4504 33.8872 17.2593C33.849 17.221 33.8107 17.1446 33.8107 17.0681V16.8388C33.8107 16.7623 33.849 16.6858 33.8872 16.6476C34.0783 16.4565 34.193 16.1889 34.193 15.9213V15.6919C34.193 15.4244 34.0783 15.1568 33.8872 14.9656L33.8107 14.8892V14.7363C35.1487 15.0803 36.1044 16.3036 36.1044 17.718V20.7762Z" fill="#F4976E"/>
</svg>
