<svg width="50" height="50" viewBox="0 0 50 50" fill="none" xmlns="http://www.w3.org/2000/svg">
<circle cx="25" cy="25" r="25" fill="white"/>
<path d="M29.3815 13.2411C29.0754 11.6586 27.6468 10.4546 26.0141 10.4546H23.3271C21.6944 10.4546 20.2658 11.6586 19.9597 13.2411C19.5175 13.3787 19.2114 13.7571 19.2114 14.2387C19.2114 14.5139 19.3135 14.7547 19.4835 14.9267C19.3135 15.0987 19.2114 15.3395 19.2114 15.6148C19.2114 16.0964 19.5175 16.4748 19.9257 16.6124C20.2318 18.2292 21.6604 19.3989 23.2931 19.3989H25.9801C27.6128 19.3989 29.0414 18.1948 29.3475 16.6124C29.7556 16.4748 30.0618 16.0964 30.0618 15.6148C30.0618 15.3395 29.9597 15.0987 29.7897 14.9267C29.9597 14.7547 30.0618 14.5139 30.0618 14.2387C30.0958 13.7571 29.7897 13.3787 29.3815 13.2411ZM23.3271 11.1426H26.0141C27.2726 11.1426 28.3611 12.0026 28.6672 13.2067H28.5312L28.4631 13.1379C28.2931 12.9659 28.089 12.8627 27.8169 12.8627H27.6128C27.3747 12.8627 27.1366 12.9659 26.9665 13.1379C26.9325 13.1723 26.8645 13.2067 26.7965 13.2067H26.5924C26.5243 13.2067 26.4563 13.1723 26.4223 13.1379C26.2522 12.9659 26.0482 12.8627 25.7761 12.8627H25.572C25.3339 12.8627 25.0958 12.9659 24.9257 13.1379C24.8917 13.1723 24.8237 13.2067 24.7556 13.2067H24.5516C24.4835 13.2067 24.4155 13.1723 24.3815 13.1379C24.2114 12.9659 24.0073 12.8627 23.7352 12.8627H23.5312C23.2931 12.8627 23.055 12.9659 22.8849 13.1379C22.8509 13.1723 22.7829 13.2067 22.7148 13.2067H22.5107C22.4427 13.2067 22.3747 13.1723 22.3407 13.1379C22.1706 12.9659 21.9665 12.8627 21.6944 12.8627H21.4903C21.2522 12.8627 21.0141 12.9659 20.8441 13.1379L20.7761 13.2067H20.64C20.9801 12.0026 22.0686 11.1426 23.3271 11.1426ZM20.2318 13.8947H21.0482L21.3203 13.6195C21.3883 13.5851 21.4563 13.5507 21.4903 13.5507H21.6944C21.7624 13.5507 21.8305 13.5851 21.8645 13.6195C22.0346 13.7915 22.2726 13.8947 22.5107 13.8947H22.7148C22.9529 13.8947 23.191 13.7915 23.3611 13.6195C23.4291 13.5851 23.4971 13.5507 23.5312 13.5507H23.7352C23.8033 13.5507 23.8713 13.5851 23.9053 13.6195C24.0754 13.7915 24.3135 13.8947 24.5516 13.8947H24.7556C24.9937 13.8947 25.2318 13.7915 25.4019 13.6195C25.4699 13.5851 25.538 13.5507 25.572 13.5507H25.7761C25.8441 13.5507 25.9121 13.5851 25.9461 13.6195C26.1162 13.7915 26.3543 13.8947 26.5924 13.8947H26.7965C27.0346 13.8947 27.2726 13.7915 27.4427 13.6195C27.5107 13.5851 27.5788 13.5507 27.6128 13.5507H27.8169C27.8849 13.5507 27.9529 13.5851 27.9869 13.6195L28.259 13.8947H29.0754C29.2794 13.8947 29.4155 14.0323 29.4155 14.2387C29.4155 14.4451 29.2794 14.5827 29.0754 14.5827H20.2318C20.0278 14.5827 19.8917 14.4451 19.8917 14.2387C19.8917 14.0323 20.0618 13.8947 20.2318 13.8947ZM26.0141 18.7108H23.3271C22.0686 18.7108 20.9801 17.8508 20.674 16.6468H28.7012C28.3611 17.8508 27.2726 18.7108 26.0141 18.7108ZM29.0754 15.9588H20.2318C20.0278 15.9588 19.8917 15.8212 19.8917 15.6148C19.8917 15.4083 20.0278 15.2707 20.2318 15.2707H29.0754C29.2794 15.2707 29.4155 15.4083 29.4155 15.6148C29.4155 15.8212 29.2794 15.9588 29.0754 15.9588Z" fill="#E67285"/>
<path d="M17.4428 32.0238C17.1366 30.4069 15.7081 29.2373 14.0754 29.2373H11.3884C9.7557 29.2373 8.32713 30.4413 8.021 32.0238C7.57883 32.1614 7.27271 32.5398 7.27271 33.0214C7.27271 33.2966 7.37475 33.5374 7.54481 33.7094C7.37475 33.8814 7.27271 34.1223 7.27271 34.3975C7.27271 34.8791 7.57883 35.2575 7.98699 35.3951C8.29311 37.0119 9.72168 38.1816 11.3543 38.1816H14.0414C15.6741 38.1816 17.1026 36.9775 17.4088 35.3951C17.8169 35.2575 18.123 34.8791 18.123 34.3975C18.123 34.1223 18.021 33.8814 17.8509 33.7094C18.021 33.5374 18.123 33.2966 18.123 33.0214C18.1571 32.5398 17.8509 32.1614 17.4428 32.0238ZM11.3884 29.9253H14.0754C15.3339 29.9253 16.4224 30.7854 16.7285 31.9894H16.5924L16.5244 31.9206C16.3543 31.7486 16.1162 31.6454 15.8781 31.6454H15.6741C15.436 31.6454 15.1979 31.7486 15.0278 31.9206C14.9938 31.955 14.9258 31.9894 14.8577 31.9894H14.6537C14.5856 31.9894 14.5176 31.955 14.4836 31.9206C14.3135 31.7486 14.0754 31.6454 13.8373 31.6454H13.6332C13.3952 31.6454 13.1571 31.7486 12.987 31.9206C12.953 31.955 12.8849 31.9894 12.8169 31.9894H12.6128C12.5448 31.9894 12.4768 31.955 12.4428 31.9206C12.2727 31.7486 12.0346 31.6454 11.7965 31.6454H11.5924C11.3543 31.6454 11.1162 31.7486 10.9462 31.9206C10.9122 31.955 10.8441 31.9894 10.7761 31.9894H10.572C10.504 31.9894 10.436 31.955 10.402 31.9206C10.2319 31.7486 9.99379 31.6454 9.7557 31.6454H9.55162C9.31352 31.6454 9.07543 31.7486 8.90536 31.9206L8.83733 31.9894H8.70128C9.04141 30.7854 10.1298 29.9253 11.3884 29.9253ZM8.29311 32.6774H9.10944L9.38155 32.4022C9.41556 32.3678 9.48359 32.3334 9.55162 32.3334H9.7557C9.82373 32.3334 9.89175 32.3678 9.92577 32.4022C10.0958 32.5742 10.3339 32.6774 10.572 32.6774H10.7761C11.0142 32.6774 11.2523 32.5742 11.4224 32.4022C11.4564 32.3678 11.5244 32.3334 11.5924 32.3334H11.7965C11.8645 32.3334 11.9326 32.3678 11.9666 32.4022C12.1367 32.5742 12.3747 32.6774 12.6128 32.6774H12.8169C13.055 32.6774 13.2931 32.5742 13.4632 32.4022C13.4972 32.3678 13.5652 32.3334 13.6332 32.3334H13.8373C13.9054 32.3334 13.9734 32.3678 14.0074 32.4022C14.1775 32.5742 14.4156 32.6774 14.6537 32.6774H14.8577C15.0958 32.6774 15.3339 32.5742 15.504 32.4022C15.538 32.3678 15.606 32.3334 15.6741 32.3334H15.8781C15.9462 32.3334 16.0142 32.3678 16.0482 32.4022L16.3203 32.6774H17.1366C17.3407 32.6774 17.4768 32.815 17.4768 33.0214C17.4768 33.2278 17.3407 33.3654 17.1366 33.3654H8.29311C8.08903 33.3654 7.95298 33.2278 7.95298 33.0214C7.95298 32.815 8.08903 32.6774 8.29311 32.6774ZM14.0414 37.4936H11.3543C10.0958 37.4936 9.0074 36.6335 8.70128 35.4295H16.7285C16.3884 36.6335 15.2999 37.4936 14.0414 37.4936ZM17.1366 34.7415H8.29311C8.08903 34.7415 7.95298 34.6039 7.95298 34.3975C7.95298 34.1911 8.08903 34.0535 8.29311 34.0535H17.1366C17.3407 34.0535 17.4768 34.1911 17.4768 34.3975C17.4768 34.5695 17.3407 34.7415 17.1366 34.7415Z" fill="#E67285"/>
<path d="M29.4835 32.0238C29.1773 30.4069 27.7488 29.2373 26.1161 29.2373H23.429C21.7964 29.2373 20.3678 30.4413 20.0617 32.0238C19.6535 32.1614 19.3474 32.5398 19.3474 33.0214C19.3474 33.2966 19.4495 33.5374 19.6195 33.7094C19.4495 33.8814 19.3474 34.1223 19.3474 34.3975C19.3474 34.8791 19.6535 35.2575 20.0617 35.3951C20.3678 37.0119 21.7964 38.1816 23.429 38.1816H26.1161C27.7488 38.1816 29.1773 36.9775 29.4835 35.3951C29.8916 35.2575 30.1977 34.8791 30.1977 34.3975C30.1977 34.1223 30.0957 33.8814 29.9256 33.7094C30.0957 33.5374 30.1977 33.2966 30.1977 33.0214C30.1977 32.5398 29.8916 32.1614 29.4835 32.0238ZM23.429 29.9253H26.1161C27.3746 29.9253 28.4631 30.7854 28.7692 31.9894H28.6331L28.5651 31.9206C28.395 31.7486 28.1569 31.6454 27.9188 31.6454H27.7148C27.4767 31.6454 27.2386 31.7486 27.0685 31.9206C27.0345 31.955 26.9665 31.9894 26.8984 31.9894H26.6943C26.6263 31.9894 26.5583 31.955 26.5243 31.9206C26.3542 31.7486 26.1161 31.6454 25.878 31.6454H25.6739C25.4358 31.6454 25.1978 31.7486 25.0277 31.9206C24.9937 31.955 24.9256 31.9894 24.8576 31.9894H24.6535C24.5855 31.9894 24.5175 31.955 24.4835 31.9206C24.3134 31.7486 24.0753 31.6454 23.8372 31.6454H23.6331C23.395 31.6454 23.1569 31.7486 22.9869 31.9206C22.9529 31.955 22.8848 31.9894 22.8168 31.9894H22.6127C22.5447 31.9894 22.4767 31.955 22.4426 31.9206C22.2726 31.7486 22.0345 31.6454 21.7964 31.6454H21.5923C21.3542 31.6454 21.1161 31.7486 20.9461 31.9206L20.878 31.9894H20.742C21.0821 30.7854 22.1705 29.9253 23.429 29.9253ZM20.3338 32.6774H21.1501L21.4222 32.4022C21.4563 32.3678 21.5243 32.3334 21.5923 32.3334H21.7964C21.8644 32.3334 21.9324 32.3678 21.9665 32.4022C22.1365 32.5742 22.3746 32.6774 22.6127 32.6774H22.8168C23.0549 32.6774 23.293 32.5742 23.4631 32.4022C23.4971 32.3678 23.5651 32.3334 23.6331 32.3334H23.8372C23.9052 32.3334 23.9733 32.3678 24.0073 32.4022C24.1773 32.5742 24.4154 32.6774 24.6535 32.6774H24.8576C25.0957 32.6774 25.3338 32.5742 25.5039 32.4022C25.5379 32.3678 25.6059 32.3334 25.6739 32.3334H25.878C25.9461 32.3334 26.0141 32.3678 26.0481 32.4022C26.2182 32.5742 26.4563 32.6774 26.6943 32.6774H26.8984C27.1365 32.6774 27.3746 32.5742 27.5447 32.4022C27.5787 32.3678 27.6467 32.3334 27.7148 32.3334H27.9188C27.9869 32.3334 28.0549 32.3678 28.0889 32.4022L28.361 32.6774H29.1773C29.3814 32.6774 29.5175 32.815 29.5175 33.0214C29.5175 33.2278 29.3814 33.3654 29.1773 33.3654H20.3338C20.1297 33.3654 19.9937 33.2278 19.9937 33.0214C19.9937 32.815 20.1637 32.6774 20.3338 32.6774ZM26.1161 37.4936H23.429C22.1705 37.4936 21.0821 36.6335 20.776 35.4295H28.8032C28.4631 36.6335 27.3746 37.4936 26.1161 37.4936ZM29.1773 34.7415H20.3338C20.1297 34.7415 19.9937 34.6039 19.9937 34.3975C19.9937 34.1911 20.1297 34.0535 20.3338 34.0535H29.1773C29.3814 34.0535 29.5175 34.1911 29.5175 34.3975C29.5175 34.5695 29.3814 34.7415 29.1773 34.7415Z" fill="#E67285"/>
<path d="M41.5245 32.0238C41.2184 30.4069 39.7898 29.2373 38.1571 29.2373H35.4701C33.8374 29.2373 32.4088 30.4413 32.1027 32.0238C31.6945 32.1614 31.3884 32.5398 31.3884 33.0214C31.3884 33.2966 31.4905 33.5374 31.6605 33.7094C31.4905 33.8814 31.3884 34.1223 31.3884 34.3975C31.3884 34.8791 31.6945 35.2575 32.1027 35.3951C32.4088 37.0119 33.8374 38.1816 35.4701 38.1816H38.1571C39.7898 38.1816 41.2184 36.9775 41.5245 35.3951C41.9326 35.2575 42.2388 34.8791 42.2388 34.3975C42.2388 34.1223 42.1367 33.8814 41.9667 33.7094C42.1367 33.5374 42.2388 33.2966 42.2388 33.0214C42.2728 32.5398 41.9667 32.1614 41.5245 32.0238ZM35.4701 29.9253H38.1571C39.4156 29.9253 40.5041 30.7854 40.8102 31.9894H40.6741L40.6061 31.9206C40.436 31.7486 40.1979 31.6454 39.9599 31.6454H39.7558C39.5177 31.6454 39.2796 31.7486 39.1095 31.9206C39.0755 31.955 39.0075 31.9894 38.9394 31.9894H38.7354C38.6673 31.9894 38.5993 31.955 38.5653 31.9206C38.3952 31.7486 38.1571 31.6454 37.919 31.6454H37.715C37.4769 31.6454 37.2388 31.7486 37.0687 31.9206C37.0347 31.955 36.9667 31.9894 36.8986 31.9894H36.6945C36.6265 31.9894 36.5585 31.955 36.5245 31.9206C36.3544 31.7486 36.1163 31.6454 35.8782 31.6454H35.6741C35.436 31.6454 35.1979 31.7486 35.0279 31.9206C34.9939 31.955 34.9258 31.9894 34.8578 31.9894H34.6537C34.5857 31.9894 34.5177 31.955 34.4837 31.9206C34.3136 31.7486 34.0755 31.6454 33.8374 31.6454H33.6333C33.3952 31.6454 33.1571 31.7486 32.9871 31.9206L32.919 31.9894H32.783C33.1231 30.7854 34.2116 29.9253 35.4701 29.9253ZM32.4088 32.6774H33.2252L33.4973 32.4022C33.5313 32.3678 33.5993 32.3334 33.6673 32.3334H33.8714C33.9394 32.3334 34.0075 32.3678 34.0415 32.4022C34.2116 32.5742 34.4497 32.6774 34.6877 32.6774H34.8918C35.1299 32.6774 35.368 32.5742 35.5381 32.4022C35.5721 32.3678 35.6401 32.3334 35.7082 32.3334H35.9122C35.9803 32.3334 36.0483 32.3678 36.0823 32.4022C36.2524 32.5742 36.4905 32.6774 36.7286 32.6774H36.9326C37.1707 32.6774 37.4088 32.5742 37.5789 32.4022C37.6129 32.3678 37.6809 32.3334 37.749 32.3334H37.9531C38.0211 32.3334 38.0891 32.3678 38.1231 32.4022C38.2932 32.5742 38.5313 32.6774 38.7694 32.6774H38.9735C39.2116 32.6774 39.4496 32.5742 39.6197 32.4022C39.6537 32.3678 39.7218 32.3334 39.7898 32.3334H39.9939C40.0619 32.3334 40.1299 32.3678 40.1639 32.4022L40.436 32.6774H41.2524C41.4565 32.6774 41.5925 32.815 41.5925 33.0214C41.5925 33.2278 41.4565 33.3654 41.2524 33.3654H32.4088C32.2048 33.3654 32.0687 33.2278 32.0687 33.0214C32.0687 32.815 32.2048 32.6774 32.4088 32.6774ZM38.1571 37.4936H35.4701C34.2116 37.4936 33.1231 36.6335 32.817 35.4295H40.8442C40.5041 36.6335 39.4156 37.4936 38.1571 37.4936ZM41.2524 34.7415H32.4088C32.2048 34.7415 32.0687 34.6039 32.0687 34.3975C32.0687 34.1911 32.2048 34.0535 32.4088 34.0535H41.2524C41.4565 34.0535 41.5925 34.1911 41.5925 34.3975C41.5925 34.5695 41.4224 34.7415 41.2524 34.7415Z" fill="#E67285"/>
<path d="M23.4632 22.6327C23.1571 21.0158 21.7285 19.8462 20.0959 19.8462H17.4088C15.7761 19.8462 14.3476 21.0502 14.0414 22.6327C13.6333 22.7703 13.3271 23.1487 13.3271 23.6303C13.3271 23.9055 13.4292 24.1463 13.5993 24.3183C13.4292 24.4903 13.3271 24.7311 13.3271 25.0064C13.3271 25.488 13.6333 25.8664 14.0414 26.004C14.3476 27.6208 15.7761 28.7905 17.4088 28.7905H20.0959C21.7285 28.7905 23.1571 27.5864 23.4632 26.004C23.8714 25.8664 24.1775 25.488 24.1775 25.0064C24.1775 24.7311 24.0754 24.4903 23.9054 24.3183C24.0754 24.1463 24.1775 23.9055 24.1775 23.6303C24.1775 23.1487 23.8714 22.7359 23.4632 22.6327ZM17.4088 20.4998H20.0959C21.3544 20.4998 22.4428 21.3598 22.7489 22.5639H22.6129L22.5448 22.4951C22.3748 22.3231 22.1367 22.2199 21.8986 22.2199H21.6945C21.4564 22.2199 21.2183 22.3231 21.0482 22.4951C21.0142 22.5295 20.9462 22.5639 20.8782 22.5639H20.6741C20.6061 22.5639 20.538 22.5295 20.504 22.4951C20.334 22.3231 20.0959 22.2199 19.8578 22.2199H19.6537C19.4156 22.2199 19.1775 22.3231 19.0074 22.4951C18.9734 22.5295 18.9054 22.5639 18.8374 22.5639H18.6333C18.5652 22.5639 18.4972 22.5295 18.4632 22.4951C18.2931 22.3231 18.055 22.2199 17.8169 22.2199H17.6129C17.3748 22.2199 17.1367 22.3231 16.9666 22.4951C16.9326 22.5295 16.8646 22.5639 16.7965 22.5639H16.5925C16.5244 22.5639 16.4564 22.5295 16.4224 22.4951C16.2523 22.3231 16.0142 22.2199 15.7761 22.2199H15.572C15.334 22.2199 15.0959 22.3231 14.9258 22.4951L14.8578 22.5639H14.7217C15.0618 21.3598 16.1503 20.4998 17.4088 20.4998ZM14.3135 23.2519H15.1299L15.402 22.9767C15.436 22.9423 15.504 22.9079 15.572 22.9079H15.7761C15.8442 22.9079 15.9122 22.9423 15.9462 22.9767C16.1163 23.1487 16.3544 23.2519 16.5925 23.2519H16.7965C17.0346 23.2519 17.2727 23.1487 17.4428 22.9767C17.4768 22.9423 17.5448 22.9079 17.6129 22.9079H17.8169C17.885 22.9079 17.953 22.9423 17.987 22.9767C18.1571 23.1487 18.3952 23.2519 18.6333 23.2519H18.8374C19.0754 23.2519 19.3135 23.1487 19.4836 22.9767C19.5176 22.9423 19.5857 22.9079 19.6537 22.9079H19.8578C19.9258 22.9079 19.9938 22.9423 20.0278 22.9767C20.1979 23.1487 20.436 23.2519 20.6741 23.2519H20.8782C21.1163 23.2519 21.3544 23.1487 21.5244 22.9767C21.5584 22.9423 21.6265 22.9079 21.6945 22.9079H21.8986C21.9666 22.9079 22.0346 22.9423 22.0686 22.9767L22.3408 23.2519H23.1571C23.3612 23.2519 23.4972 23.3895 23.4972 23.5959C23.4972 23.8023 23.3612 23.9399 23.1571 23.9399H14.3135C14.1095 23.9399 13.9734 23.8023 13.9734 23.5959C13.9734 23.3895 14.1435 23.2519 14.3135 23.2519ZM20.0959 28.0681H17.4088C16.1503 28.0681 15.0618 27.208 14.7557 26.004H22.7829C22.4088 27.208 21.3544 28.0681 20.0959 28.0681ZM23.1571 25.316H14.3135C14.1095 25.316 13.9734 25.1784 13.9734 24.972C13.9734 24.7655 14.1095 24.6279 14.3135 24.6279H23.1571C23.3612 24.6279 23.4972 24.7655 23.4972 24.972C23.4972 25.1784 23.3612 25.316 23.1571 25.316Z" fill="#E67285"/>
<path d="M35.504 22.6327C35.1979 21.0158 33.7693 19.8462 32.1366 19.8462H29.4496C27.8169 19.8462 26.3883 21.0502 26.0822 22.6327C25.674 22.7703 25.3679 23.1487 25.3679 23.6303C25.3679 23.9055 25.47 24.1463 25.64 24.3183C25.47 24.4903 25.3679 24.7311 25.3679 25.0064C25.3679 25.488 25.674 25.8664 26.0822 26.004C26.3883 27.6208 27.8169 28.7905 29.4496 28.7905H32.1366C33.7693 28.7905 35.1979 27.5864 35.504 26.004C35.9121 25.8664 36.2183 25.488 36.2183 25.0064C36.2183 24.7311 36.1162 24.4903 35.9462 24.3183C36.1162 24.1463 36.2183 23.9055 36.2183 23.6303C36.2183 23.1487 35.9121 22.7359 35.504 22.6327ZM29.4496 20.4998H32.1366C33.3951 20.4998 34.4836 21.3598 34.7897 22.5639H34.6536L34.5856 22.4951C34.4155 22.3231 34.1774 22.2199 33.9393 22.2199H33.7353C33.4972 22.2199 33.2591 22.3231 33.089 22.4951C33.055 22.5295 32.987 22.5639 32.9189 22.5639H32.7149C32.6468 22.5639 32.5788 22.5295 32.5448 22.4951C32.3747 22.3231 32.1366 22.2199 31.8985 22.2199H31.6945C31.4564 22.2199 31.2183 22.3231 31.0482 22.4951C31.0142 22.5295 30.9462 22.5639 30.8781 22.5639H30.674C30.606 22.5639 30.538 22.5295 30.504 22.4951C30.3339 22.3231 30.0958 22.2199 29.8577 22.2199H29.6536C29.4155 22.2199 29.1774 22.3231 29.0074 22.4951C28.9734 22.5295 28.9053 22.5639 28.8373 22.5639H28.6332C28.5652 22.5639 28.4972 22.5295 28.4632 22.4951C28.2931 22.3231 28.055 22.2199 27.8169 22.2199H27.6128C27.3747 22.2199 27.1366 22.3231 26.9666 22.4951L26.8985 22.5639H26.7625C27.1026 21.3598 28.191 20.4998 29.4496 20.4998ZM26.3543 23.2519H27.1706L27.4427 22.9767C27.4768 22.9423 27.5448 22.9079 27.6128 22.9079H27.8169C27.8849 22.9079 27.953 22.9423 27.987 22.9767C28.157 23.1487 28.3951 23.2519 28.6332 23.2519H28.8373C29.0754 23.2519 29.3135 23.1487 29.4836 22.9767C29.5176 22.9423 29.5856 22.9079 29.6536 22.9079H29.8577C29.9257 22.9079 29.9938 22.9423 30.0278 22.9767C30.1979 23.1487 30.4359 23.2519 30.674 23.2519H30.8781C31.1162 23.2519 31.3543 23.1487 31.5244 22.9767C31.5584 22.9423 31.6264 22.9079 31.6945 22.9079H31.8985C31.9666 22.9079 32.0346 22.9423 32.0686 22.9767C32.2387 23.1487 32.4768 23.2519 32.7149 23.2519H32.9189C33.157 23.2519 33.3951 23.1487 33.5652 22.9767C33.5992 22.9423 33.6672 22.9079 33.7353 22.9079H33.9393C34.0074 22.9079 34.0754 22.9423 34.1094 22.9767L34.3815 23.2519H35.1979C35.4019 23.2519 35.538 23.3895 35.538 23.5959C35.538 23.8023 35.4019 23.9399 35.1979 23.9399H26.3543C26.1502 23.9399 26.0142 23.8023 26.0142 23.5959C26.0142 23.3895 26.1842 23.2519 26.3543 23.2519ZM32.1366 28.0681H29.4496C28.191 28.0681 27.1026 27.208 26.7965 26.004H34.8237C34.4836 27.208 33.3951 28.0681 32.1366 28.0681ZM35.1979 25.316H26.3543C26.1502 25.316 26.0142 25.1784 26.0142 24.972C26.0142 24.7655 26.1502 24.6279 26.3543 24.6279H35.1979C35.4019 24.6279 35.538 24.7655 35.538 24.972C35.538 25.1784 35.4019 25.316 35.1979 25.316Z" fill="#E67285"/>
</svg>
