<svg width="34" height="34" viewBox="0 0 34 34" fill="none" xmlns="http://www.w3.org/2000/svg">
<circle cx="17" cy="17" r="17" fill="white"/>
<path fill-rule="evenodd" clip-rule="evenodd" d="M16.7996 21.9861H17.9173C17.9173 21.9861 18.255 21.9509 18.4274 21.7744C18.586 21.6124 18.5809 21.3082 18.5809 21.3082C18.5809 21.3082 18.5591 19.8842 19.2552 19.6745C19.9414 19.4679 20.8226 21.0508 21.7565 21.6594C22.4628 22.1201 22.9995 22.0191 22.9995 22.0191L25.4967 21.9861C25.4967 21.9861 26.8031 21.9096 26.1837 20.9344C26.1329 20.8546 25.823 20.2129 24.3269 18.8945C22.7611 17.5145 22.9708 17.7377 24.857 15.3507C26.0057 13.8969 26.465 13.0094 26.3216 12.6293C26.1847 12.2673 25.3399 12.3629 25.3399 12.3629L22.528 12.3796C22.528 12.3796 22.3196 12.3526 22.165 12.4403C22.014 12.5264 21.9167 12.7269 21.9167 12.7269C21.9167 12.7269 21.4717 13.8519 20.8782 14.8086C19.6261 16.8273 19.1255 16.9338 18.9209 16.8085C18.4449 16.5163 18.5637 15.6348 18.5637 15.0086C18.5637 13.0523 18.8762 12.2366 17.9552 12.0255C17.6495 11.9553 17.4246 11.9091 16.6429 11.9016C15.6397 11.8917 14.7905 11.9045 14.3097 12.1282C13.9898 12.2769 13.743 12.6083 13.8933 12.6274C14.0791 12.651 14.5001 12.7351 14.7232 13.0236C15.0113 13.3958 15.0012 14.2317 15.0012 14.2317C15.0012 14.2317 15.1667 16.5347 14.6145 16.8208C14.2355 17.017 13.7156 16.6164 12.5994 14.7849C12.0274 13.8468 11.5956 12.8098 11.5956 12.8098C11.5956 12.8098 11.5123 12.616 11.3638 12.5124C11.1836 12.3868 10.9317 12.3468 10.9317 12.3468L8.25979 12.3634C8.25979 12.3634 7.85868 12.374 7.71144 12.5396C7.58044 12.6869 7.70103 12.9916 7.70103 12.9916C7.70103 12.9916 9.79288 17.6384 12.1614 19.9801C14.3333 22.1271 16.7996 21.9861 16.7996 21.9861Z" fill="#292929"/>
</svg>
