<svg width="16" height="16" viewBox="0 0 16 16" fill="none" xmlns="http://www.w3.org/2000/svg">
<circle cx="8" cy="8" r="8" fill="#B3D9F3"/>
<path d="M10.608 7.84004L10.512 12.224C10.512 12.224 9.96804 12.896 7.82404 12.896C5.71204 12.896 5.37604 12.128 5.37604 12.128L5.29604 8.09604C5.20004 8.11204 5.40804 8.09604 5.29604 8.09604C4.16004 8.11204 3.04004 7.20004 3.04004 6.06404C3.04004 4.92804 3.96804 4.00004 5.10404 4.00004C5.39204 4.00004 5.68004 4.06404 5.93604 4.17604C6.27204 3.50404 6.99204 3.04004 7.79204 3.04004C8.56004 3.04004 9.18404 3.47204 9.55204 4.09604C9.88804 3.84004 10.304 3.71204 10.768 3.71204C11.904 3.71204 12.832 4.62404 12.832 5.77604C12.848 6.91204 11.76 7.84004 10.608 7.84004C10.544 7.84004 10.704 7.84004 10.608 7.84004Z" fill="white"/>
</svg>
