<svg width="32" height="32" viewBox="0 0 32 32" fill="none" xmlns="http://www.w3.org/2000/svg">
<circle cx="16" cy="16" r="16" fill="#B3D9F3"/>
<path d="M21.2161 15.6801L21.0241 24.4481C21.0241 24.4481 19.9361 25.7921 15.6481 25.7921C11.4241 25.7921 10.7521 24.2561 10.7521 24.2561L10.5921 16.1921C10.4001 16.2241 10.8161 16.1921 10.5921 16.1921C8.32008 16.2241 6.08008 14.4001 6.08008 12.1281C6.08008 9.85608 7.93608 8.00008 10.2081 8.00008C10.7841 8.00008 11.3601 8.12808 11.8721 8.35208C12.5441 7.00808 13.9841 6.08008 15.5841 6.08008C17.1201 6.08008 18.3681 6.94408 19.1041 8.19208C19.7761 7.68008 20.6081 7.42408 21.5361 7.42408C23.8081 7.42408 25.6641 9.24808 25.6641 11.5521C25.6961 13.8241 23.5201 15.6801 21.2161 15.6801C21.0881 15.6801 21.4081 15.6801 21.2161 15.6801Z" fill="white"/>
</svg>
