<svg width="152" height="152" viewBox="0 0 152 152" fill="none" xmlns="http://www.w3.org/2000/svg">
<circle cx="76" cy="76" r="76" fill="#B3D9F3"/>
<path d="M100.776 74.4804L99.8644 116.128C99.8644 116.128 94.6964 122.512 74.3284 122.512C54.2644 122.512 51.0724 115.216 51.0724 115.216L50.3124 76.9124C49.4004 77.0644 51.3764 76.9124 50.3124 76.9124C39.5204 77.0644 28.8804 68.4004 28.8804 57.6084C28.8804 46.8164 37.6964 38.0004 48.4884 38.0004C51.2244 38.0004 53.9604 38.6084 56.3924 39.6724C59.5844 33.2884 66.4244 28.8804 74.0244 28.8804C81.3204 28.8804 87.2484 32.9844 90.7444 38.9124C93.9364 36.4804 97.8884 35.2644 102.296 35.2644C113.088 35.2644 121.904 43.9284 121.904 54.8724C122.056 65.6644 111.72 74.4804 100.776 74.4804C100.168 74.4804 101.688 74.4804 100.776 74.4804Z" fill="white"/>
</svg>
