<svg width="55" height="51" viewBox="0 0 55 51" fill="none" xmlns="http://www.w3.org/2000/svg">
<path d="M38.071 18.0195L37.7083 34.4773C37.7083 34.4773 35.6527 37 27.5516 37C19.5713 37 18.3017 34.1169 18.3017 34.1169L17.9995 18.9805C17.6367 19.0406 18.4227 18.9805 17.9995 18.9805C13.707 19.0406 9.4751 15.6169 9.4751 11.3523C9.4751 7.08766 12.9816 3.6039 17.274 3.6039C18.3622 3.6039 19.4504 3.84416 20.4177 4.26461C21.6873 1.74188 24.4078 0 27.4307 0C30.3326 0 32.6904 1.62175 34.0809 3.96429C35.3505 3.00325 36.9223 2.52273 38.6756 2.52273C42.968 2.52273 46.4744 5.94643 46.4744 10.2711C46.5349 14.5357 42.4239 18.0195 38.071 18.0195C37.8292 18.0195 38.4337 18.0195 38.071 18.0195Z" fill="white"/>
<path d="M9.38257 21.6009C9.38257 21.0431 9.33185 20.5866 9.28114 20.333C9.1797 19.7244 8.8754 19.1665 8.36824 18.7101C7.86107 18.2536 7.30319 18.0508 6.59316 18.0508C5.88313 18.0508 5.22381 18.3044 4.71664 18.8115C4.15876 18.3044 3.55016 18.0508 2.84013 18.0508C2.18081 18.0508 1.5215 18.3044 1.06505 18.7101C0.608599 19.1158 0.253583 19.623 0.101433 20.333C0.0507165 20.6373 0 21.0431 0 21.6009V25.9626C0 26.2162 0.202866 26.3176 0.355016 26.3176C0.608599 26.3176 0.710033 26.1147 0.710033 25.9626V21.4488C0.710033 20.6373 0.862182 19.978 1.2172 19.4708C1.57221 18.913 2.1301 18.6594 2.89085 18.6594C3.44873 18.6594 3.90518 18.8622 4.31091 19.268C3.9559 19.8766 3.80375 20.5359 3.80375 21.4488V25.9119C3.80375 26.1147 3.95589 26.2669 4.15876 26.2669C4.41234 26.2669 4.51378 26.064 4.51378 25.9119V21.3981C4.51378 20.7388 4.61521 20.2316 4.76736 19.8766C4.91951 20.2823 5.02094 20.8909 5.02094 21.6009V25.9626C5.02094 26.1654 5.17309 26.3176 5.37596 26.3176C5.62954 26.3176 5.73098 26.1147 5.73098 25.9626V21.2966C5.73098 20.3837 5.57883 19.7244 5.22381 19.2173C5.57883 18.8622 6.03528 18.6594 6.59316 18.6594C7.10032 18.6594 7.55677 18.8115 7.91179 19.1158C8.2668 19.3694 8.52039 19.7751 8.67254 20.2823C8.77397 20.5866 8.77397 20.9416 8.77397 21.4488V25.9626C8.77397 26.1654 8.92612 26.3176 9.12899 26.3176C9.38257 26.3176 9.484 26.1147 9.484 25.9626L9.43329 25.709V21.6009H9.38257Z" fill="black"/>
<path d="M17.5987 19.3188C16.7873 18.5073 15.7729 18.1016 14.6064 18.1016C13.44 18.1016 12.4256 18.5073 11.6142 19.3188C10.8027 20.1302 10.397 21.1446 10.397 22.311C10.397 23.4775 10.8027 24.4919 11.6649 25.3033C12.5271 26.1148 13.5414 26.5205 14.7079 26.5205C15.5701 26.5205 16.3815 26.2669 17.0408 25.8105V25.9119C17.0408 26.2669 17.2437 26.3684 17.3959 26.3684C17.548 26.3684 17.7509 26.2162 17.7509 25.9119V25.2526C18.5623 24.3904 18.9681 23.4268 18.9681 22.311C18.8666 21.0938 18.4102 20.0795 17.5987 19.3188ZM16.9394 22.3618V24.999C16.2294 25.6076 15.4686 25.9119 14.6064 25.9119C13.6428 25.9119 12.7807 25.5569 12.1213 24.8469C11.4113 24.1876 11.107 23.3761 11.107 22.3618C11.107 21.3474 11.462 20.536 12.1721 19.8259C12.8821 19.1159 13.6936 18.7609 14.7079 18.7609C15.6715 18.7609 16.5337 19.1159 17.193 19.8259C17.8523 20.536 18.258 21.3474 18.258 22.311C18.258 23.0211 18.0552 23.6297 17.7002 24.1876V22.3618C17.5987 21.8546 16.9394 21.8546 16.9394 22.3618Z" fill="black"/>
<path d="M23.4312 26.5206C24.3948 26.5206 25.3077 26.2163 26.1191 25.557C26.322 25.4048 26.4742 25.3034 26.5756 25.1512H26.6263V25.1005C26.677 25.0498 26.677 24.9991 26.677 24.8977C26.677 24.7455 26.5756 24.5934 26.3727 24.5934H26.1699L26.1191 24.6948V24.7962C25.7641 25.1005 25.3584 25.4048 24.9527 25.6077C24.4962 25.8105 23.989 25.9627 23.5326 25.9627C22.5183 25.9627 21.7068 25.6077 21.0475 24.8977C20.3374 24.1876 19.9824 23.3762 19.9824 22.3618C19.9824 21.3982 20.3374 20.536 21.0475 19.8767C21.7068 19.1667 22.5183 18.8624 23.5326 18.8624C24.4962 18.8624 25.3584 19.2174 26.0684 19.9274L26.2206 20.0289H26.4234L26.4742 19.9781C26.5756 19.9274 26.6263 19.826 26.6263 19.7246V19.6231L26.5756 19.5724C26.5756 19.5724 26.5756 19.5217 26.5249 19.5217C26.4742 19.471 26.4742 19.4203 26.4234 19.4203C25.6627 18.6088 24.6484 18.1523 23.4312 18.1523C22.2647 18.1523 21.2503 18.5581 20.4389 19.3695C19.6274 20.181 19.2217 21.1953 19.2217 22.3618C19.2217 23.4776 19.6274 24.4919 20.4389 25.3541C21.3011 26.1148 22.3154 26.5206 23.4312 26.5206Z" fill="black"/>
<path d="M33.8785 19.3188C33.067 18.5073 32.0527 18.1016 30.8862 18.1016C29.7198 18.1016 28.7054 18.5073 27.894 19.3188C27.0825 20.1302 26.6768 21.1446 26.6768 22.311C26.6768 23.4775 27.0825 24.4919 27.894 25.3033C28.7561 26.1148 29.7705 26.5205 30.937 26.5205C31.7991 26.5205 32.6106 26.2669 33.2699 25.8105V25.9119C33.2699 26.2669 33.4728 26.3684 33.6249 26.3684C33.7771 26.3684 33.9799 26.2162 33.9799 25.9119V25.2526C34.7914 24.3904 35.1971 23.4268 35.1971 22.311C35.1464 21.0431 34.7407 20.0795 33.8785 19.3188ZM33.2192 22.3618V24.999C32.5092 25.6076 31.7484 25.9119 30.8862 25.9119C29.9226 25.9119 29.0604 25.5569 28.3504 24.8469C27.6404 24.1876 27.3361 23.3761 27.3361 22.3618C27.3361 21.3474 27.6911 20.536 28.4011 19.8259C29.1112 19.1159 29.9226 18.7609 30.937 18.7609C31.9006 18.7609 32.7627 19.1159 33.4221 19.8259C34.1321 20.536 34.4871 21.3474 34.4871 22.311C34.4871 23.0211 34.2842 23.6804 33.9292 24.2383V22.4125C33.8785 21.8546 33.2192 21.8546 33.2192 22.3618Z" fill="black"/>
<path d="M36.2119 26.368C36.4655 26.368 36.567 26.1651 36.567 26.013V22.7164C36.567 21.8542 36.6177 21.3471 36.7191 20.992C36.8713 20.4342 37.1756 19.9777 37.5813 19.6227C37.987 19.2677 38.4435 19.0648 38.9506 18.9127C39.2042 18.9127 39.3057 18.7098 39.3057 18.5577C39.3057 18.3041 39.1535 18.2534 39.0521 18.2026H39.0014H38.9506C38.6971 18.2026 38.3928 18.3041 38.0377 18.5069C37.4291 18.8112 36.922 19.217 36.567 19.7749C36.567 19.4706 36.567 19.0648 36.567 18.6084C36.567 18.1012 35.8569 18.1012 35.8569 18.6084V26.013C35.8569 26.2159 36.0091 26.368 36.2119 26.368Z" fill="black"/>
<path d="M46.6593 19.3188C45.8478 18.5073 44.8335 18.1016 43.667 18.1016C42.5005 18.1016 41.4862 18.5073 40.6747 19.3188C39.8633 20.1302 39.4575 21.1446 39.4575 22.311C39.4575 23.4775 39.8633 24.4919 40.6747 25.3033C41.5369 26.1148 42.5512 26.5205 43.7177 26.5205C44.8842 26.5205 45.8985 26.1148 46.71 25.2526C47.5215 24.3904 47.9272 23.3761 47.9272 22.2096C47.9272 21.0938 47.5215 20.0795 46.6593 19.3188ZM43.667 18.7609C44.6306 18.7609 45.4928 19.1159 46.1521 19.8259C46.8621 20.536 47.2172 21.3474 47.2172 22.311C47.2172 23.3254 46.8621 24.1876 46.1014 24.8469C45.4421 25.5569 44.6306 25.8612 43.6163 25.8612C42.6527 25.8612 41.7905 25.5062 41.1312 24.7962C40.4211 24.0861 40.0661 23.2747 40.0661 22.311C40.0661 21.2967 40.4211 20.4852 41.1312 19.7752C41.7905 19.0652 42.6527 18.7609 43.667 18.7609Z" fill="black"/>
<path d="M54.5202 20.2315C54.4187 19.6229 54.1144 19.1158 53.5566 18.6593C53.0494 18.2536 52.4408 18 51.7815 18C51.2743 18 50.8179 18.1014 50.4121 18.355C50.1078 18.5579 49.8035 18.7608 49.6007 19.065V18.5579C49.6007 18.0507 48.8906 18.0507 48.8906 18.5579V25.9625C48.8906 26.2161 49.0935 26.3175 49.2456 26.3175C49.4992 26.3175 49.6007 26.1147 49.6007 25.9625V21.753C49.6007 21.2966 49.6007 20.8908 49.6514 20.688C49.7528 20.0794 49.9557 19.6229 50.3107 19.2679C50.7164 18.9129 51.2236 18.71 51.7308 18.71C52.1365 18.71 52.5422 18.8115 52.8465 19.0143C53.303 19.2679 53.6073 19.6736 53.7087 20.1808C53.8101 20.4851 53.8101 21.043 53.8101 21.753V25.9625C53.8101 26.1654 53.9623 26.3175 54.1652 26.3175C54.2666 26.3175 54.368 26.2668 54.4187 26.2161H54.5709V21.398C54.6216 20.9416 54.5709 20.5358 54.5202 20.2315Z" fill="black"/>
<path d="M15.8744 36.106C15.5194 36.106 15.4686 36.3088 15.4686 36.461C15.4686 36.7146 15.6715 36.816 15.8237 36.816C16.2294 36.816 16.5337 36.9174 16.8887 37.1203C17.548 37.4753 17.903 38.0839 17.903 38.8447C17.903 39.4025 17.7002 39.859 17.2944 40.2647C16.8887 40.6704 16.4323 40.8733 15.8744 40.8733C15.0629 40.8733 14.505 40.5183 14.0486 39.8083C13.8964 39.6054 13.795 39.3011 13.795 38.9461C13.795 38.6925 13.6428 38.5404 13.44 38.5404C13.1864 38.5404 13.085 38.7432 13.085 38.8954C13.085 39.6054 13.3893 40.2647 13.9471 40.7212C14.4543 41.2283 15.1136 41.4819 15.8237 41.4819C16.5844 41.4819 17.2437 41.2283 17.7509 40.6705C18.2581 40.1633 18.5624 39.504 18.5624 38.7432C18.5624 37.9825 18.3088 37.3739 17.8016 36.8667C17.2944 36.4103 16.6351 36.106 15.8744 36.106Z" fill="black"/>
<path d="M15.7221 33.9757C16.3814 33.9757 16.8379 34.2293 17.1422 34.7872C17.1929 34.8886 17.2943 35.0915 17.3451 35.2944C17.3451 35.5479 17.4972 35.7001 17.7001 35.7001C17.9029 35.7001 18.0551 35.5479 18.0551 35.3451C18.0551 34.7365 17.7508 34.2293 17.2436 33.925C16.7872 33.5193 16.28 33.3164 15.6714 33.3164C15.0628 33.3164 14.5049 33.5193 14.0485 33.9757C13.6427 34.4829 13.3892 34.9901 13.3892 35.5987C13.3892 36.2073 13.592 36.7651 14.0485 37.2216C14.4542 37.678 15.0121 37.9316 15.6207 37.9316C15.8743 37.9316 16.0264 37.7795 16.0264 37.5766C16.0264 37.3737 15.8743 37.2216 15.6714 37.2216C15.215 37.2216 14.8599 37.0694 14.5556 36.7651C14.2513 36.4608 14.0992 36.0551 14.0992 35.5987C14.0992 35.1422 14.2513 34.7365 14.5556 34.4322C14.9614 34.1279 15.3164 33.9757 15.7221 33.9757Z" fill="black"/>
<path d="M24.699 36.7143C24.699 36.1564 24.6483 35.7507 24.5976 35.4971C24.4454 34.8378 24.1411 34.3306 23.6847 33.9756C23.1775 33.5191 22.6703 33.3163 22.011 33.3163C21.5546 33.3163 21.0981 33.4177 20.6924 33.6713C20.3374 33.8234 20.0838 34.077 19.8809 34.3306V31.2876C19.8809 30.7804 19.1709 30.7804 19.1709 31.2876V40.9745C19.1709 41.2281 19.3738 41.3295 19.5259 41.3295C19.7795 41.3295 19.8809 41.1266 19.8809 40.9745V36.9171C19.8809 36.6128 19.8809 36.3593 19.9316 36.1564C19.9316 36.0042 19.9316 35.9028 19.9316 35.8521C20.0331 35.2942 20.2359 34.8378 20.591 34.4827C20.9967 34.1277 21.4024 33.9756 22.011 33.9756C22.4168 33.9756 22.8225 34.077 23.1268 34.2799C23.5832 34.5842 23.8368 34.9392 23.9383 35.3956C24.0397 35.6999 24.0397 36.2071 24.0397 36.9171V40.9745C24.0397 41.1773 24.1918 41.3295 24.3947 41.3295C24.6483 41.3295 24.7497 41.1266 24.7497 40.9745L24.699 40.7209V36.7143V36.7143Z" fill="black"/>
<path d="M32.5091 34.4828C31.6977 33.6714 30.7341 33.2656 29.6183 33.2656C28.5025 33.2656 27.4882 33.6714 26.7275 34.4828C25.916 35.2943 25.5103 36.2579 25.5103 37.3737C25.5103 38.4894 25.916 39.5038 26.7275 40.2645C27.5389 41.076 28.5025 41.4817 29.669 41.4817C30.8355 41.4817 31.7991 41.076 32.5599 40.2645C33.3713 39.4531 33.7771 38.4894 33.7771 37.323C33.7771 36.1565 33.3713 35.2436 32.5091 34.4828ZM27.1839 39.8081C26.5246 39.1488 26.1696 38.3373 26.1696 37.3737C26.1696 36.4101 26.5246 35.5986 27.1839 34.8886C27.8432 34.2292 28.6547 33.8742 29.669 33.8742C30.5819 33.8742 31.4441 34.2292 32.1034 34.8886C32.7627 35.5479 33.1177 36.3593 33.1177 37.323C33.1177 38.2866 32.7627 39.1488 32.0527 39.8081C31.3934 40.4674 30.5819 40.8224 29.6183 40.8224C28.7054 40.8224 27.8432 40.4674 27.1839 39.8081Z" fill="black"/>
<path d="M38.5446 33.2656C37.3781 33.2656 36.4145 33.6714 35.6537 34.4828C34.893 35.2943 34.4365 36.2579 34.4365 37.3737C34.4365 38.4894 34.8423 39.4531 35.603 40.2645V43.5611C35.603 43.764 35.7552 43.9161 35.958 43.9161C36.2116 43.9161 36.313 43.7132 36.313 43.5611V40.8731C36.9724 41.3296 37.7331 41.5324 38.5446 41.5324C39.711 41.5324 40.7254 41.1267 41.4861 40.3659C42.2976 39.5545 42.754 38.6416 42.754 37.4751C42.754 36.3086 42.2976 35.345 41.4861 34.5335C40.6747 33.6714 39.711 33.2656 38.5446 33.2656ZM35.958 37.0187C35.8059 37.0187 35.603 37.1708 35.603 37.4244V39.1488C35.2987 38.6416 35.1466 38.033 35.1466 37.3737C35.1466 36.4608 35.5016 35.5986 36.1609 34.9393C36.8709 34.2292 37.6824 33.9249 38.646 33.9249C39.6096 33.9249 40.4211 34.28 41.1311 34.9393C41.7904 35.5986 42.1454 36.4101 42.1454 37.4244C42.1454 38.388 41.7904 39.1995 41.0804 39.8588C40.4211 40.5181 39.6096 40.8731 38.646 40.8731C37.7838 40.8731 37.0231 40.5688 36.3638 39.9602V37.4244C36.313 37.0694 36.1102 37.0187 35.958 37.0187Z" fill="black"/>
<path d="M22.4751 46.1577V50.5697L26.4567 48.3099L22.4751 46.1577Z" fill="black"/>
<path d="M30.277 46.1577V50.5697L26.2954 48.3099L30.277 46.1577Z" fill="black"/>
</svg>
