<svg width="75" height="75" viewBox="0 0 75 75" fill="none" xmlns="http://www.w3.org/2000/svg">
<path d="M61.0033 61.0033C48.0555 73.9512 27.0271 73.9512 14.032 61.0033C1.03687 48.0082 1.03687 26.9798 14.032 14.032C26.9798 1.03687 48.0082 1.03687 61.0033 14.032C73.9512 26.9798 73.9512 48.0082 61.0033 61.0033Z" fill="#74CED2"/>
<path d="M46.7793 25.7039L46.4485 40.4001C46.4485 40.4001 44.6056 42.6684 37.4701 42.6684C30.3819 42.6684 29.295 40.1166 29.295 40.1166L29.0115 26.6017C28.6807 26.649 29.3895 26.6017 29.0115 26.6017C25.1838 26.6017 21.4507 23.5774 21.4507 19.7498C21.4507 15.9221 24.5223 12.8505 28.3499 12.8505C29.295 12.8505 30.2874 13.0868 31.1379 13.4176C32.2721 11.1494 34.6821 9.63721 37.3756 9.63721C39.9274 9.63721 42.0538 11.1021 43.2824 13.1813C44.4166 12.3307 45.787 11.9054 47.3464 11.9054C51.174 11.9054 54.2456 14.977 54.2456 18.8047C54.2928 22.6323 50.607 25.7039 46.7793 25.7039C46.543 25.7039 47.0628 25.7039 46.7793 25.7039Z" fill="white"/>
<path d="M18.8993 39.3136C18.8993 39.4081 18.8521 39.4081 18.8048 39.4081C18.7576 39.4081 18.7103 39.3609 18.7103 39.3136V34.5409C18.7103 33.9738 18.6631 33.5485 18.5685 33.2178C18.4268 32.6507 18.1433 32.1781 17.6707 31.8474C17.2454 31.5166 16.7256 31.3276 16.1113 31.3276C15.4025 31.3276 14.7882 31.6111 14.3156 32.1781C14.7409 32.6979 14.9299 33.454 14.9299 34.3991V39.3136C14.9299 39.4081 14.8827 39.4081 14.8354 39.4081C14.7882 39.4081 14.7409 39.3609 14.7409 39.3136V34.6827C14.7409 33.5958 14.5519 32.7925 14.2211 32.3199C13.8431 32.7925 13.654 33.5013 13.654 34.4936V39.2664C13.654 39.3609 13.6068 39.3609 13.5595 39.3609C13.5123 39.3609 13.465 39.3136 13.465 39.2664V34.5409C13.465 33.5485 13.654 32.7925 14.0793 32.1781C13.5595 31.6111 12.9452 31.3276 12.2364 31.3276C11.3385 31.3276 10.677 31.6583 10.2517 32.3199C9.87364 32.887 9.68462 33.5958 9.68462 34.5409V39.3136C9.68462 39.4081 9.63737 39.4081 9.59012 39.4081C9.49561 39.4081 9.49561 39.3609 9.49561 39.3136V34.6827C9.49561 34.1156 9.54286 33.6903 9.59012 33.3595C9.73188 32.6979 10.0154 32.1781 10.488 31.8001C10.9605 31.3748 11.5748 31.1858 12.1891 31.1858C12.9452 31.1858 13.6068 31.4693 14.1738 32.0836C14.6936 31.5166 15.3552 31.1858 16.1585 31.1858C16.8201 31.1858 17.3872 31.3748 17.8597 31.8001C18.3323 32.2254 18.6631 32.7452 18.7576 33.3595C18.8048 33.6903 18.8521 34.1156 18.8521 34.6827V39.3136H18.8993Z" fill="black"/>
<path fill-rule="evenodd" clip-rule="evenodd" d="M13.6548 32.2239C13.236 31.8414 12.7663 31.66 12.2362 31.66C11.4331 31.66 10.8866 31.9479 10.5323 32.499L10.5293 32.5037L10.5293 32.5037C10.1978 33.001 10.0183 33.6397 10.0183 34.5395V39.3122C10.0183 39.4036 9.99549 39.5691 9.84011 39.6727C9.77377 39.7169 9.70851 39.7309 9.66879 39.7362C9.6344 39.7407 9.60202 39.7406 9.59188 39.7406C9.59111 39.7406 9.59046 39.7406 9.58996 39.7406C9.49861 39.7406 9.3331 39.7178 9.22951 39.5624C9.18529 39.496 9.17134 39.4308 9.16604 39.3911C9.16146 39.3567 9.16159 39.3243 9.16163 39.3142C9.16163 39.3134 9.16164 39.3127 9.16164 39.3122V34.6813C9.16164 34.0943 9.21069 33.6526 9.2595 33.3109L9.26114 33.2995L9.26356 33.2882C9.4169 32.5726 9.7308 31.98 10.2717 31.5441C10.8155 31.0584 11.5113 30.8506 12.189 30.8506C12.9332 30.8506 13.5987 31.0982 14.1734 31.6134C14.7112 31.1319 15.3757 30.8506 16.1584 30.8506C16.8896 30.8506 17.5401 31.0621 18.0829 31.5506C18.5985 32.0146 18.9785 32.6 19.0873 33.3074L19.0879 33.3109L19.0879 33.3109C19.1367 33.6526 19.1857 34.0943 19.1857 34.6813V38.9784H19.233V39.3122C19.233 39.4036 19.2102 39.5691 19.0548 39.6727C18.9885 39.7169 18.9232 39.7309 18.8835 39.7362C18.8491 39.7407 18.8167 39.7406 18.8066 39.7406C18.8058 39.7406 18.8052 39.7406 18.8047 39.7406C18.6952 39.7406 18.6048 39.6975 18.5404 39.646H18.5181V39.6271C18.5131 39.6225 18.5083 39.6179 18.5036 39.6133C18.4391 39.5487 18.3763 39.4444 18.3763 39.3122V34.5395C18.3763 33.9877 18.33 33.597 18.2474 33.3081L18.2459 33.3027L18.2445 33.2973C18.1184 32.7927 17.8737 32.3956 17.4791 32.1194L17.4722 32.1146L17.4656 32.1095C17.0996 31.8248 16.6521 31.66 16.1111 31.66C15.5853 31.66 15.1252 31.8381 14.7456 32.2034C15.1146 32.7843 15.2636 33.5397 15.2636 34.3977V39.3122C15.2636 39.4036 15.2408 39.5691 15.0854 39.6727C15.0191 39.7169 14.9538 39.7309 14.9141 39.7362C14.8797 39.7407 14.8473 39.7406 14.8372 39.7406C14.8364 39.7406 14.8358 39.7406 14.8353 39.7406C14.7031 39.7406 14.5988 39.6778 14.5342 39.6133C14.4697 39.5487 14.4069 39.4444 14.4069 39.3122V34.6813C14.4069 33.9911 14.3279 33.4458 14.1981 33.0418C14.063 33.4052 13.9877 33.8793 13.9877 34.4922V39.265C13.9877 39.3563 13.9649 39.5218 13.8095 39.6254C13.7432 39.6697 13.6779 39.6836 13.6382 39.6889C13.6038 39.6935 13.5714 39.6934 13.5613 39.6933C13.5605 39.6933 13.5599 39.6933 13.5594 39.6933C13.4272 39.6933 13.3229 39.6306 13.2584 39.566C13.1938 39.5014 13.131 39.3972 13.131 39.265V34.5395C13.131 33.6209 13.2866 32.8637 13.6548 32.2239ZM9.35066 39.3118V39.3122L9.35066 39.3122C9.35066 39.3121 9.35066 39.312 9.35066 39.3118Z" fill="black"/>
<path d="M28.8698 35.3911C28.8698 36.5725 28.4445 37.5648 27.5939 38.4154C27.5939 38.3682 27.5939 38.5099 27.5939 38.7462C27.5939 38.9352 27.5939 39.077 27.5939 39.2187C27.5939 39.3605 27.5466 39.455 27.4994 39.455C27.4521 39.455 27.4049 39.4078 27.4049 39.266C27.4049 39.1715 27.4049 39.077 27.4049 38.888C27.4049 38.6517 27.4049 38.5572 27.4049 38.6044C26.6015 39.3133 25.6564 39.644 24.6641 39.644C23.4827 39.644 22.4903 39.2187 21.6398 38.4154C20.8364 37.6121 20.4111 36.5725 20.4111 35.4384C20.4111 34.257 20.8364 33.2646 21.6398 32.4613C22.4431 31.658 23.4827 31.2327 24.6168 31.2327C25.7982 31.2327 26.7905 31.658 27.5939 32.4613C28.4445 33.2174 28.8698 34.2097 28.8698 35.3911ZM28.6807 35.3911C28.6807 34.3042 28.3027 33.3591 27.4994 32.5558C26.696 31.7525 25.7509 31.3744 24.6641 31.3744C23.53 31.3744 22.5849 31.7525 21.7815 32.5558C20.9782 33.3591 20.6002 34.3042 20.6002 35.4384C20.6002 36.5725 20.9782 37.5176 21.7815 38.2736C22.5849 39.077 23.53 39.455 24.6168 39.455C25.6564 39.455 26.5543 39.077 27.3576 38.3682V35.4856C27.3576 35.3911 27.4049 35.3438 27.4521 35.3438C27.4994 35.3438 27.5466 35.3911 27.5466 35.4856V38.1791C28.3027 37.3285 28.6807 36.4307 28.6807 35.3911Z" fill="black"/>
<path fill-rule="evenodd" clip-rule="evenodd" d="M27.8808 37.1552C28.1949 36.6026 28.3472 36.0248 28.3472 35.3912C28.3472 34.3921 28.0039 33.5321 27.2636 32.7919C26.5234 32.0517 25.6634 31.7083 24.6644 31.7083C23.616 31.7083 22.7566 32.0532 22.0179 32.7919C21.2791 33.5307 20.9343 34.39 20.9343 35.4384C20.9343 36.4887 21.2801 37.3431 22.0106 38.0306L22.0143 38.0341L22.0179 38.0377C22.7581 38.7779 23.6181 39.1213 24.6171 39.1213C25.5182 39.1213 26.3045 38.8131 27.0241 38.2147V35.4857C27.0241 35.3022 27.1381 35.0101 27.4524 35.0101C27.7667 35.0101 27.8808 35.3022 27.8808 35.4857V37.1552ZM27.0714 39.276C26.3357 39.7518 25.5148 39.9779 24.6644 39.9779C23.392 39.9779 22.3191 39.516 21.4109 38.6582L21.4074 38.6549L21.404 38.6515C20.5374 37.7849 20.0776 36.6601 20.0776 35.4384C20.0776 34.1675 20.5388 33.0905 21.404 32.2253C22.2707 31.3587 23.3955 30.8989 24.6171 30.8989C25.8847 30.8989 26.9593 31.3576 27.8233 32.2184C28.7449 33.0411 29.2039 34.1242 29.2039 35.3912C29.2039 36.6184 28.7738 37.6623 27.928 38.5513V39.2188C27.928 39.3229 27.9112 39.429 27.8715 39.5216C27.852 39.5672 27.8208 39.6238 27.7704 39.6741C27.7204 39.7241 27.6287 39.7889 27.4997 39.7889C27.3462 39.7889 27.2197 39.7043 27.1485 39.5855C27.0887 39.4859 27.0724 39.3738 27.0714 39.276ZM27.7402 39.2884C27.7402 39.2884 27.7401 39.2878 27.7399 39.2866L27.7402 39.2884Z" fill="black"/>
<path d="M37.1395 38.1795C37.1395 38.274 36.9977 38.4158 36.6669 38.6521C35.8636 39.2664 34.9657 39.5972 33.9734 39.5972C32.8393 39.5972 31.8469 39.1719 31.0436 38.3685C30.2402 37.5179 29.8149 36.5256 29.8149 35.3915C29.8149 34.2101 30.2402 33.2178 31.0436 32.4144C31.8469 31.6111 32.8393 31.1858 34.0206 31.1858C35.2493 31.1858 36.2416 31.6111 36.9977 32.4144C37.0449 32.4617 37.0922 32.5562 37.1395 32.6034C37.1395 32.6507 37.0922 32.6507 37.0449 32.6979C36.9977 32.6979 36.9977 32.6507 36.9504 32.6507C36.1471 31.8474 35.1547 31.4221 34.0679 31.4221C32.9338 31.4221 31.9887 31.8001 31.2326 32.6034C30.4293 33.4068 30.0512 34.3519 30.0512 35.4387C30.0512 36.5728 30.4293 37.5179 31.2326 38.3213C31.9887 39.1246 32.9338 39.5027 34.0679 39.5027C34.5877 39.5027 35.1547 39.3609 35.6745 39.1246C36.1471 38.9356 36.5724 38.6048 36.9977 38.2268C37.0449 38.2268 37.0449 38.1795 37.0922 38.1795C37.0922 38.085 37.1395 38.1323 37.1395 38.1795Z" fill="black"/>
<path fill-rule="evenodd" clip-rule="evenodd" d="M37.2384 32.1826C36.4153 31.3096 35.3338 30.8518 34.0209 30.8518C32.75 30.8518 31.6731 31.313 30.8078 32.1782C29.9426 33.0434 29.4814 34.1204 29.4814 35.3913C29.4814 36.6183 29.9448 37.6908 30.8012 38.5976L30.8045 38.601L30.8078 38.6044C31.6716 39.4682 32.748 39.9308 33.9737 39.9308C35.0444 39.9308 36.0109 39.5728 36.8656 38.9204C37.0328 38.8008 37.1676 38.6945 37.2636 38.5985C37.2901 38.572 37.3164 38.5435 37.341 38.5132H37.4263V38.3804C37.4522 38.326 37.4736 38.2579 37.4736 38.1793C37.4736 38.115 37.4583 38.0557 37.4355 38.0062C37.4189 37.9704 37.3717 37.8808 37.2654 37.8276C37.2016 37.7957 37.1018 37.7719 36.9925 37.8119C36.926 37.8363 36.8791 37.876 36.8471 37.9141L36.7762 37.9771C36.3565 38.3502 35.967 38.648 35.5509 38.8145L35.5437 38.8174L35.5367 38.8205C35.051 39.0413 34.5311 39.1687 34.0682 39.1687C33.0179 39.1687 32.1636 38.8229 31.476 38.0923L31.4725 38.0886L31.4689 38.0851C30.7302 37.3463 30.3853 36.487 30.3853 35.4386C30.3853 34.4395 30.7287 33.5795 31.4689 32.8393L31.4725 32.8357L31.476 32.832C32.1636 32.1015 33.0179 31.7557 34.0682 31.7557C35.0614 31.7557 35.9703 32.1421 36.7147 32.8866L36.8125 32.9843H36.8589C36.8826 32.9973 36.9095 33.0088 36.9396 33.0172C36.9754 33.0272 37.011 33.0316 37.0453 33.0316H37.1835L37.2704 32.9447C37.275 32.9418 37.2829 32.9366 37.2954 32.9283C37.3141 32.9158 37.3636 32.8821 37.4051 32.8228C37.4532 32.7541 37.4736 32.6769 37.4736 32.6033V32.465L37.3791 32.3706C37.3782 32.3694 37.3766 32.3673 37.3743 32.3641C37.3672 32.3544 37.3592 32.3425 37.3466 32.3236L37.3453 32.3216C37.3344 32.3052 37.3193 32.2826 37.3034 32.2607C37.2881 32.2396 37.266 32.2109 37.2384 32.1826Z" fill="black"/>
<path d="M46.0704 35.3911C46.0704 36.5725 45.6451 37.5648 44.7946 38.4154C44.7946 38.3682 44.7946 38.5099 44.7946 38.7462C44.7946 38.9352 44.7946 39.077 44.7946 39.2187C44.7946 39.3605 44.7473 39.455 44.7001 39.455C44.6528 39.455 44.6055 39.4078 44.6055 39.266C44.6055 39.1715 44.6055 39.077 44.6055 38.888C44.6055 38.6517 44.6055 38.5572 44.6055 38.6044C43.8022 39.3133 42.8571 39.644 41.8648 39.644C40.6834 39.644 39.691 39.2187 38.8404 38.4154C38.0371 37.6121 37.6118 36.5725 37.6118 35.4384C37.6118 34.257 38.0371 33.2646 38.8404 32.4613C39.6438 31.658 40.6834 31.2327 41.8175 31.2327C42.9989 31.2327 43.9912 31.658 44.7946 32.4613C45.6924 33.2174 46.0704 34.2097 46.0704 35.3911ZM45.8814 35.3911C45.8814 34.3042 45.5034 33.3591 44.7001 32.5558C43.8967 31.7525 42.9516 31.3744 41.8648 31.3744C40.7306 31.3744 39.7855 31.7525 38.9822 32.5558C38.1789 33.3591 37.8008 34.3042 37.8008 35.4384C37.8008 36.5725 38.1789 37.5176 38.9822 38.2736C39.7855 39.077 40.7306 39.455 41.8175 39.455C42.8571 39.455 43.755 39.077 44.5583 38.3682V35.4856C44.5583 35.3911 44.6055 35.3438 44.6528 35.3438C44.7001 35.3438 44.7473 35.3911 44.7473 35.4856V38.1791C45.5506 37.3285 45.8814 36.4307 45.8814 35.3911Z" fill="black"/>
<path fill-rule="evenodd" clip-rule="evenodd" d="M45.0814 37.1915C45.4083 36.6325 45.5479 36.0443 45.5479 35.3912C45.5479 34.3921 45.2046 33.5321 44.4643 32.7919C43.7241 32.0517 42.8641 31.7083 41.8651 31.7083C40.8167 31.7083 39.9573 32.0532 39.2186 32.7919C38.4798 33.5307 38.135 34.39 38.135 35.4384C38.135 36.4887 38.4808 37.3431 39.2113 38.0306L39.215 38.0341L39.2186 38.0377C39.9588 38.7779 40.8188 39.1213 41.8178 39.1213C42.7189 39.1213 43.5052 38.8131 44.2248 38.2147V35.4857C44.2248 35.3021 44.3388 35.0101 44.6531 35.0101C44.9674 35.0101 45.0814 35.3022 45.0814 35.4857V37.1915ZM44.2721 39.276C43.5364 39.7518 42.7154 39.9779 41.8651 39.9779C40.5927 39.9779 39.5198 39.516 38.6116 38.6582L38.6081 38.6549L38.6047 38.6515C37.7381 37.7849 37.2783 36.6601 37.2783 35.4384C37.2783 34.1675 37.7395 33.0905 38.6047 32.2253C39.4714 31.3587 40.5962 30.8989 41.8178 30.8989C43.0838 30.8989 44.1573 31.3565 45.0208 32.2153C45.9992 33.0447 46.4046 34.1346 46.4046 35.3912C46.4046 36.6184 45.9745 37.6623 45.1287 38.5513V39.2188C45.1287 39.3229 45.1119 39.429 45.0722 39.5216C45.0526 39.5672 45.0215 39.6238 44.9711 39.6741C44.9211 39.7241 44.8294 39.7889 44.7004 39.7889C44.5469 39.7889 44.4204 39.7043 44.3491 39.5855C44.2894 39.4859 44.2731 39.3738 44.2721 39.276ZM44.9409 39.2884C44.9409 39.2884 44.9408 39.2878 44.9406 39.2866L44.9409 39.2884Z" fill="black"/>
<path d="M50.4655 31.4694C50.4655 31.5167 50.4182 31.5639 50.3237 31.5639C49.6622 31.7057 49.1424 31.9892 48.7171 32.3672C48.2445 32.7925 47.9137 33.3123 47.7247 33.9267C47.583 34.352 47.5357 34.9663 47.5357 35.8169V39.3137C47.5357 39.4082 47.4884 39.4082 47.4412 39.4082C47.3939 39.4082 47.3467 39.361 47.3467 39.3137V31.4694C47.3467 31.3749 47.3939 31.3276 47.4412 31.3276C47.4884 31.3276 47.5357 31.3749 47.5357 31.4694C47.5357 33.0761 47.5357 33.9739 47.4884 34.2102C47.7247 33.0288 48.3863 32.131 49.4731 31.6112C49.8512 31.4221 50.0875 31.3276 50.3237 31.3276C50.4182 31.3749 50.4655 31.3749 50.4655 31.4694Z" fill="black"/>
<path fill-rule="evenodd" clip-rule="evenodd" d="M47.8687 32.4968C47.8693 32.1942 47.8693 31.8527 47.8693 31.4721V31.4692C47.8693 31.2857 47.7553 30.9937 47.441 30.9937C47.1267 30.9937 47.0127 31.2857 47.0127 31.4692V39.3135C47.0127 39.4457 47.0754 39.55 47.14 39.6146C47.2046 39.6791 47.3088 39.7419 47.441 39.7419C47.4415 39.7419 47.4422 39.7419 47.4429 39.7419C47.4531 39.7419 47.4855 39.742 47.5198 39.7375C47.5596 39.7322 47.6248 39.7182 47.6912 39.674C47.8465 39.5704 47.8693 39.4049 47.8693 39.3135V35.8167C47.8693 34.9657 47.9184 34.4006 48.0412 34.032L48.0413 34.0321L48.0436 34.0247C48.215 33.4677 48.5127 33.0002 48.9394 32.6159C49.3177 32.2798 49.7782 32.0261 50.3699 31.8953C50.5523 31.8778 50.7991 31.7582 50.7991 31.4692C50.7991 31.4205 50.7935 31.3541 50.7641 31.2843C50.7318 31.2075 50.6817 31.1522 50.6302 31.1136C50.5876 31.0816 50.5441 31.0617 50.5255 31.0532L50.5247 31.0528C50.5153 31.0485 50.5082 31.0453 50.5022 31.0426C50.4912 31.0377 50.4839 31.0344 50.4729 31.0289L50.4024 30.9937H50.3236C49.9995 30.9937 49.6983 31.1252 49.3263 31.3111C48.719 31.6021 48.2328 32.0032 47.8687 32.4968ZM47.2017 39.3131C47.2017 39.3133 47.2017 39.3134 47.2017 39.3135L47.2017 39.3135V39.3131Z" fill="black"/>
<path d="M59.5856 35.3911C59.5856 36.5725 59.1603 37.5648 58.357 38.4154C57.5536 39.2187 56.5613 39.644 55.3799 39.644C54.1985 39.644 53.2062 39.2187 52.3556 38.4154C51.5522 37.6121 51.127 36.5725 51.127 35.4384C51.127 34.257 51.5522 33.2646 52.3556 32.4613C53.1589 31.658 54.1985 31.2327 55.3326 31.2327C56.514 31.2327 57.5064 31.658 58.3097 32.4613C59.1603 33.2174 59.5856 34.2097 59.5856 35.3911ZM59.3493 35.3911C59.3493 34.3042 58.9713 33.3591 58.1679 32.5558C57.3646 31.7525 56.4195 31.3744 55.3326 31.3744C54.1985 31.3744 53.2534 31.7525 52.4501 32.5558C51.6468 33.3591 51.2687 34.3042 51.2687 35.4384C51.2687 36.5252 51.6468 37.4703 52.4501 38.2736C53.2534 39.077 54.1985 39.455 55.2854 39.455C56.4195 39.455 57.3646 39.077 58.1207 38.2736C58.9713 37.4703 59.3493 36.478 59.3493 35.3911Z" fill="black"/>
<path fill-rule="evenodd" clip-rule="evenodd" d="M52.1194 32.2253C52.986 31.3587 54.1108 30.8989 55.3325 30.8989C56.6 30.8989 57.6746 31.3576 58.5386 32.2184C59.4602 33.0411 59.9192 34.1242 59.9192 35.3912C59.9192 36.6635 59.4573 37.7364 58.5995 38.6447L58.5962 38.6482L58.5928 38.6515C57.7276 39.5167 56.6506 39.9779 55.3797 39.9779C54.1074 39.9779 53.0344 39.516 52.1262 38.6582L52.1227 38.6549L52.1194 38.6515C51.2527 37.7849 50.793 36.6601 50.793 35.4384C50.793 34.1675 51.2541 33.0905 52.1194 32.2253ZM55.3325 31.7083C54.2841 31.7083 53.4247 32.0532 52.686 32.7919C51.9472 33.5307 51.6024 34.39 51.6024 35.4384C51.6024 36.4375 51.9457 37.2974 52.686 38.0377C53.4262 38.7779 54.2862 39.1213 55.2852 39.1213C56.3355 39.1213 57.1898 38.7755 57.8774 38.0449L57.8842 38.0378L57.8913 38.031C58.6703 37.2953 59.0153 36.393 59.0153 35.3912C59.0153 34.3921 58.672 33.5321 57.9317 32.7919C57.1915 32.0517 56.3315 31.7083 55.3325 31.7083Z" fill="black"/>
<path d="M66.5793 39.3138C66.5793 39.4083 66.5321 39.4083 66.4848 39.4083C66.4376 39.4083 66.3903 39.361 66.3903 39.3138V34.8718C66.3903 34.0685 66.3431 33.4542 66.2486 33.1234C66.1068 32.5563 65.776 32.0838 65.2089 31.753C64.8309 31.5167 64.3584 31.3749 63.8858 31.3749C63.2242 31.3749 62.6572 31.6112 62.1846 32.0365C61.7121 32.4618 61.4758 33.0289 61.3813 33.6904C61.334 33.9267 61.334 34.352 61.334 34.8718V39.3138C61.334 39.4083 61.2868 39.4083 61.2395 39.4083C61.145 39.4083 61.145 39.361 61.145 39.3138V31.4695C61.145 31.3749 61.1923 31.3277 61.2395 31.3277C61.2868 31.3277 61.334 31.3749 61.334 31.4695C61.334 32.32 61.334 32.8871 61.334 33.1234C61.3813 32.9816 61.4758 32.7453 61.6176 32.4146C61.8538 32.0365 62.1846 31.7057 62.6099 31.4695C63.0352 31.2332 63.4605 31.1387 63.9331 31.1387C64.5474 31.1387 65.1144 31.3277 65.6342 31.753C66.1068 32.1783 66.4376 32.6508 66.5321 33.2651C66.5793 33.5959 66.6266 33.974 66.6266 34.4938V39.3138H66.5793Z" fill="black"/>
<path fill-rule="evenodd" clip-rule="evenodd" d="M66.7704 39.6474H66.9602V34.4936C66.9602 33.9513 66.9107 33.5557 66.8624 33.2178L66.8618 33.2142C66.7517 32.4985 66.3648 31.9613 65.8574 31.5047L65.8515 31.4994L65.8455 31.4945C65.2651 31.0196 64.6231 30.8047 63.9329 30.8047C63.4107 30.8047 62.9284 30.9104 62.4477 31.1775C62.1449 31.3457 61.8848 31.5566 61.6677 31.7962V31.4693C61.6677 31.2858 61.5537 30.9937 61.2394 30.9937C60.9251 30.9937 60.8111 31.2858 60.8111 31.4693V39.3136C60.8111 39.3141 60.811 39.3147 60.811 39.3155C60.811 39.3257 60.8109 39.358 60.8155 39.3924C60.8208 39.4321 60.8347 39.4974 60.8789 39.5637C60.9825 39.7191 61.148 39.7419 61.2394 39.7419C61.2399 39.7419 61.2405 39.7419 61.2413 39.7419C61.2514 39.742 61.2838 39.7421 61.3182 39.7375C61.3579 39.7322 61.4232 39.7183 61.4895 39.674C61.6449 39.5704 61.6677 39.4049 61.6677 39.3136V34.8716C61.6677 34.332 61.6695 33.9507 61.7085 33.7557L61.7103 33.7466L61.7116 33.7375C61.7988 33.1272 62.0104 32.6421 62.4078 32.2845C62.8228 31.9109 63.3115 31.7086 63.8856 31.7086C64.2945 31.7086 64.7059 31.8322 65.0319 32.0359L65.0362 32.0386L65.0406 32.0412C65.5281 32.3255 65.8041 32.7223 65.9245 33.2042L65.9259 33.2096L65.9274 33.2149C66.0076 33.4957 66.0563 34.067 66.0563 34.8716V39.3136C66.0563 39.4458 66.1191 39.5501 66.1837 39.6146C66.2482 39.6792 66.3525 39.7419 66.4847 39.7419C66.4852 39.7419 66.4858 39.7419 66.4866 39.7419C66.4967 39.742 66.5291 39.7421 66.5635 39.7375C66.6032 39.7322 66.6685 39.7183 66.7348 39.674C66.7475 39.6656 66.7594 39.6566 66.7704 39.6474ZM61.0001 39.3135C61.0001 39.3137 61.0001 39.3135 61.0001 39.3135V39.3135Z" fill="black"/>
<path d="M28.5393 52.8286C28.5393 53.5375 28.3031 54.1518 27.7833 54.6716C27.2635 55.1914 26.6492 55.4276 25.9403 55.4276C25.2788 55.4276 24.6644 55.1914 24.1446 54.7188C23.6248 54.2463 23.3413 53.632 23.3413 52.9704C23.3413 52.8759 23.3886 52.8759 23.4358 52.8759C23.4831 52.8759 23.5303 52.9231 23.5303 53.0176C23.5776 53.4429 23.6721 53.7737 23.8611 54.0573C24.3337 54.8606 25.0425 55.2859 25.9876 55.2859C26.6492 55.2859 27.2162 55.0496 27.6888 54.5771C28.1613 54.1045 28.3976 53.5375 28.3976 52.8759C28.3976 51.9308 27.9723 51.222 27.169 50.7967C26.7909 50.5604 26.4129 50.4659 25.9403 50.4659C25.8458 50.4659 25.8458 50.4186 25.8458 50.3714C25.8458 50.2769 25.8931 50.2769 25.9876 50.2769C26.6964 50.2769 27.3107 50.5131 27.8305 51.0329C28.3031 51.5055 28.5393 52.1198 28.5393 52.8286ZM28.0195 49.19C28.0195 49.2373 27.9723 49.2845 27.925 49.2845C27.8778 49.2845 27.8305 49.2373 27.8305 49.1427C27.7833 48.8592 27.6888 48.6229 27.5942 48.4812C27.2162 47.8196 26.6492 47.4888 25.8458 47.4888C25.2788 47.4888 24.8535 47.6778 24.4282 48.0559C24.0501 48.4339 23.8611 48.9065 23.8611 49.4735C23.8611 49.9933 24.0501 50.4659 24.4282 50.8912C24.8062 51.2692 25.2788 51.4582 25.7986 51.4582C25.8458 51.4582 25.8931 51.5055 25.8931 51.5527C25.8931 51.6 25.8458 51.6473 25.7513 51.6473C25.1843 51.6473 24.6644 51.411 24.2864 50.9857C23.8611 50.5604 23.6721 50.0406 23.6721 49.4735C23.6721 48.8592 23.9084 48.3394 24.2864 47.9141C24.7117 47.4888 25.2315 47.2998 25.7986 47.2998C26.3184 47.2998 26.8382 47.4888 27.2635 47.8669C27.7833 48.1976 28.0195 48.6702 28.0195 49.19Z" fill="black"/>
<path fill-rule="evenodd" clip-rule="evenodd" d="M27.498 49.1797C27.4558 48.9404 27.3775 48.7582 27.3163 48.6664L27.31 48.6568L27.3042 48.6469C27.1397 48.359 26.9432 48.158 26.7137 48.0268C26.4838 47.8954 26.2006 47.8227 25.8456 47.8227C25.3754 47.8227 25.0282 47.9712 24.6572 48.2988C24.3504 48.609 24.1948 48.9927 24.1948 49.4736C24.1948 49.9008 24.3462 50.2938 24.6709 50.6621C24.984 50.9717 25.3686 51.1245 25.7984 51.1245C25.9306 51.1245 26.0348 51.1872 26.0994 51.2518C26.164 51.3164 26.2267 51.4206 26.2267 51.5528C26.2267 51.8671 25.9347 51.9811 25.7511 51.9811C25.0907 51.9811 24.4833 51.7058 24.0433 51.2149C23.5548 50.7228 23.3381 50.1182 23.3381 49.4736C23.3381 48.766 23.6126 48.1696 24.0367 47.6924L24.0433 47.6851L24.0502 47.6782C24.5435 47.1848 25.1508 46.9661 25.7984 46.9661C26.392 46.9661 26.9825 47.1793 27.4651 47.5999C28.0646 47.9908 28.3532 48.5625 28.3532 49.1901C28.3532 49.3223 28.2904 49.4265 28.2259 49.4911C28.1613 49.5557 28.0571 49.6184 27.9249 49.6184C27.6309 49.6184 27.5121 49.3629 27.498 49.1797ZM23.8633 52.9932C23.8537 52.8093 23.7363 52.5421 23.4356 52.5421C23.4351 52.5421 23.4345 52.5421 23.4337 52.5421C23.4236 52.5421 23.3912 52.542 23.3568 52.5465C23.3171 52.5518 23.2519 52.5658 23.1855 52.61C23.0301 52.7136 23.0073 52.8791 23.0073 52.9705C23.0073 53.7331 23.3359 54.435 23.9199 54.9659C24.4995 55.4927 25.1933 55.7615 25.9402 55.7615C26.7332 55.7615 27.4337 55.4931 28.0191 54.9077C28.6045 54.3223 28.873 53.6217 28.873 52.8287C28.873 52.0407 28.6079 51.3384 28.0664 50.797C27.481 50.2116 26.7804 49.9431 25.9874 49.9431C25.9861 49.9431 25.9847 49.9431 25.9832 49.9431C25.9632 49.9431 25.9298 49.9431 25.8977 49.9458C25.8643 49.9485 25.7999 49.9562 25.7318 49.9902C25.6517 50.0302 25.5873 50.0962 25.5495 50.1812C25.5168 50.2547 25.5118 50.325 25.5118 50.3714C25.5118 50.3719 25.5118 50.3726 25.5118 50.3734C25.5118 50.3835 25.5117 50.4159 25.5162 50.4503C25.5215 50.49 25.5355 50.5552 25.5797 50.6216C25.6833 50.777 25.8488 50.7998 25.9402 50.7998C26.36 50.7998 26.6746 50.8816 26.9919 51.0798L27.002 51.0862L27.0126 51.0918C27.7037 51.4576 28.0636 52.0511 28.0636 52.876C28.0636 53.448 27.8632 53.9304 27.4525 54.3411C27.0419 54.7518 26.5594 54.9521 25.9874 54.9521C25.1649 54.9521 24.5635 54.5933 24.1487 53.8881L24.1439 53.88L24.1387 53.8722C23.9919 53.652 23.9077 53.383 23.8633 52.9932Z" fill="black"/>
<path d="M35.0605 55.1441C35.0605 55.2386 35.0133 55.2386 34.966 55.2386C34.9187 55.2386 34.8715 55.1914 34.8715 55.1441V50.8439C34.8715 50.0406 34.8242 49.4735 34.7297 49.1428C34.588 48.5757 34.2572 48.1504 33.7374 47.8196C33.3593 47.5833 32.8868 47.4416 32.4142 47.4416C31.7527 47.4416 31.2329 47.6306 30.7603 48.0559C30.335 48.4812 30.0515 49.001 29.957 49.6626C29.957 49.8988 29.9097 50.2769 29.9097 50.8439V55.1441C29.9097 55.2386 29.8625 55.2386 29.8152 55.2386C29.7207 55.2386 29.7207 55.1914 29.7207 55.1441V44.8898C29.7207 44.7953 29.768 44.748 29.8152 44.748C29.8625 44.748 29.9097 44.7953 29.9097 44.8898V48.5757V49.19C29.957 49.0482 30.0515 48.812 30.1933 48.5284C30.4295 48.1504 30.7131 47.8196 31.1383 47.6306C31.5636 47.3943 31.9889 47.2998 32.4142 47.2998C33.0285 47.2998 33.5484 47.4888 34.0209 47.9141C34.4934 48.2922 34.777 48.812 34.9187 49.379C34.966 49.6626 35.0133 50.0879 35.0133 50.6077V55.1441H35.0605Z" fill="black"/>
<path fill-rule="evenodd" clip-rule="evenodd" d="M29.5758 55.1435C29.5758 55.1437 29.5758 55.1438 29.5758 55.1439L29.5758 55.144V55.1435ZM30.2905 49.6878C30.2893 49.7874 30.2817 49.9071 30.2734 50.0369C30.2711 50.0736 30.2687 50.1111 30.2664 50.1492C30.2548 50.3409 30.2434 50.5697 30.2434 50.8438V55.144C30.2434 55.2353 30.2206 55.4008 30.0652 55.5044C29.9989 55.5486 29.9336 55.5626 29.8939 55.5679C29.8595 55.5725 29.8271 55.5723 29.817 55.5723C29.8162 55.5723 29.8156 55.5723 29.8151 55.5723C29.7237 55.5723 29.5582 55.5495 29.4546 55.3941C29.4104 55.3278 29.3964 55.2625 29.3911 55.2228C29.3866 55.1884 29.3867 55.156 29.3867 55.1459C29.3867 55.1451 29.3867 55.1445 29.3867 55.144V44.8896C29.3867 44.7061 29.5008 44.4141 29.8151 44.4141C30.1294 44.4141 30.2434 44.7061 30.2434 44.8896V47.8957C30.4409 47.6705 30.6814 47.4709 30.9889 47.3316C31.4629 47.071 31.9403 46.9658 32.4141 46.9658C33.1053 46.9658 33.703 47.1818 34.2369 47.6594C34.7736 48.0919 35.0877 48.6789 35.2424 49.2979L35.2457 49.3108L35.2479 49.324C35.2979 49.6243 35.3469 50.068 35.3469 50.6075V54.8101H35.3942V55.144C35.3942 55.2353 35.3714 55.4008 35.216 55.5044C35.1497 55.5486 35.0844 55.5626 35.0447 55.5679C35.0103 55.5725 34.9779 55.5723 34.9678 55.5723C34.967 55.5723 34.9663 55.5723 34.9658 55.5723C34.8563 55.5723 34.766 55.5292 34.7015 55.4778H34.6793V55.4588C34.6743 55.4542 34.6694 55.4496 34.6648 55.445C34.6003 55.3804 34.5375 55.2761 34.5375 55.144V50.8438C34.5375 50.0412 34.4891 49.5159 34.4086 49.2343L34.4071 49.2289L34.4057 49.2235C34.2874 48.7503 34.0158 48.3927 33.5592 48.1018C33.2334 47.8985 32.8225 47.7752 32.4141 47.7752C31.8321 47.7752 31.3951 47.9359 30.99 48.298C30.621 48.6693 30.3767 49.1155 30.2905 49.6878Z" fill="black"/>
<path d="M44.6058 51.3165C44.6058 52.4506 44.2277 53.4429 43.4244 54.2463C42.6211 55.0496 41.676 55.4276 40.5418 55.4276C39.4077 55.4276 38.4154 55.0496 37.612 54.2463C36.8087 53.4429 36.4307 52.4978 36.4307 51.3637C36.4307 50.2296 36.8087 49.2845 37.612 48.4812C38.4154 47.6778 39.3605 47.2998 40.4946 47.2998C41.6287 47.2998 42.5738 47.6778 43.3771 48.4812C44.2277 49.2373 44.6058 50.1824 44.6058 51.3165ZM44.4167 51.3165C44.4167 50.2296 44.0387 49.3318 43.2826 48.5757C42.5265 47.8196 41.5814 47.4416 40.5418 47.4416C39.455 47.4416 38.5099 47.8196 37.7538 48.5757C36.9977 49.3318 36.6197 50.2769 36.6197 51.3637C36.6197 52.4506 36.9977 53.3484 37.7538 54.1045C38.5099 54.8606 39.455 55.2386 40.4946 55.2386C41.5814 55.2386 42.4793 54.8606 43.2354 54.1045C44.0387 53.3484 44.4167 52.4033 44.4167 51.3165Z" fill="black"/>
<path fill-rule="evenodd" clip-rule="evenodd" d="M37.3763 48.2452C38.2442 47.3773 39.2751 46.9661 40.4949 46.9661C41.7115 46.9661 42.7401 47.3751 43.6066 48.2383C44.5304 49.0631 44.9399 50.1004 44.9399 51.3165C44.9399 52.5322 44.5315 53.6117 43.6607 54.4824C42.7928 55.3503 41.762 55.7615 40.5422 55.7615C39.3265 55.7615 38.247 55.3531 37.3763 54.4824C36.5084 53.6145 36.0972 52.5836 36.0972 51.3638C36.0972 50.144 36.5084 49.1131 37.3763 48.2452ZM40.5422 47.7755C39.54 47.7755 38.681 48.121 37.9902 48.8118C37.2993 49.5026 36.9538 50.3617 36.9538 51.3638C36.9538 52.3616 37.2963 53.1747 37.9902 53.8685C38.6825 54.5609 39.5422 54.9049 40.4949 54.9049C41.4927 54.9049 42.3058 54.5624 42.9996 53.8685L43.0032 53.865L43.0069 53.8615C43.739 53.1725 44.0832 52.3173 44.0832 51.3165C44.0832 50.3188 43.7408 49.5057 43.0469 48.8118C42.3546 48.1195 41.4949 47.7755 40.5422 47.7755Z" fill="black"/>
<path d="M54.1042 51.3636C54.1042 52.4977 53.7262 53.4428 52.8756 54.2462C52.0722 55.0495 51.0799 55.4275 49.9458 55.4275C48.9534 55.4275 48.0556 55.0968 47.2995 54.4352V57.8375C47.2995 57.932 47.2522 57.932 47.205 57.932C47.1577 57.932 47.1105 57.8848 47.1105 57.8375V54.2462C46.3071 53.4428 45.8818 52.4505 45.8818 51.3164C45.8818 50.1822 46.2599 49.2371 47.0632 48.4338C47.8665 47.6305 48.8116 47.2524 49.9458 47.2524C51.0799 47.2524 52.025 47.6305 52.8283 48.4338C53.6789 49.2371 54.1042 50.2295 54.1042 51.3636ZM53.9152 51.3636C53.9152 50.2768 53.5371 49.3317 52.7811 48.5756C52.025 47.8195 51.0799 47.4415 49.993 47.4415C48.9061 47.4415 48.0083 47.8195 47.205 48.5756C46.4489 49.3317 46.0709 50.2768 46.0709 51.3164C46.0709 52.356 46.4016 53.2538 47.1105 53.9626V51.3636C47.1105 51.2691 47.1577 51.2219 47.205 51.2219C47.2995 51.2219 47.2995 51.2691 47.2995 51.3636V54.1517C48.0556 54.8605 48.9534 55.2385 49.993 55.2385C51.0799 55.2385 51.9777 54.8605 52.7338 54.1044C53.5371 53.3483 53.9152 52.4032 53.9152 51.3636Z" fill="black"/>
<path fill-rule="evenodd" clip-rule="evenodd" d="M47.6331 54.0042C48.3076 54.5962 49.0905 54.905 49.9928 54.905C50.9906 54.905 51.8037 54.5626 52.4976 53.8687L52.5012 53.8651L52.5048 53.8616C53.2385 53.1711 53.5812 52.3152 53.5812 51.3639C53.5812 50.3618 53.2357 49.5028 52.5448 48.8119C51.854 48.1211 50.995 47.7756 49.9928 47.7756C48.9982 47.7756 48.1819 48.1161 47.4373 48.8155C46.7473 49.5072 46.4045 50.3656 46.4045 51.3167C46.4045 51.9255 46.5258 52.4729 46.7765 52.9544V51.3639C46.7765 51.1804 46.8905 50.8884 47.2048 50.8884C47.2512 50.8884 47.3216 50.8934 47.395 50.926C47.48 50.9638 47.546 51.0282 47.5861 51.1083C47.6201 51.1764 47.6277 51.2408 47.6305 51.2742C47.6332 51.3063 47.6331 51.3397 47.6331 51.3597C47.6331 51.3612 47.6331 51.3626 47.6331 51.3639V54.0042ZM46.7765 54.382C45.9756 53.5358 45.5479 52.4953 45.5479 51.3167C45.5479 50.0969 45.9591 49.066 46.827 48.1981C47.6949 47.3302 48.7258 46.9189 49.9456 46.9189C51.1638 46.9189 52.1936 47.3291 53.0608 48.1947C53.9751 49.0598 54.4378 50.1384 54.4378 51.3639C54.4378 52.5837 54.0263 53.617 53.1081 54.4859C52.2379 55.3543 51.1597 55.7617 49.9456 55.7617C49.1059 55.7617 48.325 55.5412 47.6331 55.1019V57.8379C47.6331 57.9292 47.6103 58.0947 47.4549 58.1983C47.3886 58.2425 47.3233 58.2565 47.2836 58.2618C47.2492 58.2664 47.2169 58.2662 47.2067 58.2662C47.2059 58.2662 47.2053 58.2662 47.2048 58.2662C47.0726 58.2662 46.9684 58.2034 46.9038 58.1389C46.8392 58.0743 46.7765 57.9701 46.7765 57.8379V54.382ZM46.9655 57.8374C46.9655 57.8376 46.9655 57.8377 46.9655 57.8378L46.9655 57.8379V57.8374Z" fill="black"/>
<path d="M34.6348 59.114V62.9889L38.1316 61.0042L34.6348 59.114Z" fill="black"/>
<path d="M41.4871 59.1133V62.9882L37.9902 61.0035L41.4871 59.1133Z" fill="black"/>
<circle cx="37.5" cy="37.5" r="36.5" stroke="url(#paint0_linear)" stroke-width="2"/>
<defs>
<linearGradient id="paint0_linear" x1="5.03563" y1="70.1138" x2="74.5282" y2="9.9569" gradientUnits="userSpaceOnUse">
<stop stop-color="#FFDD55"/>
<stop offset="0.5" stop-color="#FF543E"/>
<stop offset="1" stop-color="#C837AB"/>
</linearGradient>
</defs>
</svg>
