<svg width="69" height="60" viewBox="0 0 69 60" fill="none" xmlns="http://www.w3.org/2000/svg">
<g clip-path="url(#clip0)">
<path d="M61.3434 42.2916C58.7242 51.589 44.1249 55.5998 28.7269 51.2619C13.2767 46.8296 2.91805 35.7876 5.51653 26.564C5.66204 26.0475 5.88053 25.5515 6.07823 25.1293C9.73021 16.9194 23.59 13.5762 38.1853 17.688C52.7806 21.7998 62.857 31.8862 61.6654 40.869C61.5615 41.238 61.4889 41.7751 61.3434 42.2916Z" fill="#F281A3"/>
<path d="M61.6128 40.7747C60.5929 42.7175 58.5093 43.9623 56.4991 45.7854C54.489 47.6084 52.0197 48.8242 49.1006 48.0019C47.6411 47.5907 45.8693 47.7287 44.3585 48.3385C41.9516 49.3329 39.1267 49.015 36.864 47.82C34.8724 46.7811 32.4226 46.2502 30.0255 46.3713C26.1378 46.4708 23.1768 45.2384 20.6421 42.7721C18.3577 40.5356 15.7403 38.9222 13.1755 37.9607C9.39089 36.5759 7.65893 34.3358 7.07249 30.8255C6.73726 28.6603 5.89163 26.9088 6.00487 25.1088C9.65685 16.8989 23.5167 13.5558 38.1119 17.6675C52.728 21.7055 62.8044 31.792 61.6128 40.7747Z" fill="#EE5D7C"/>
<path d="M62.6737 37.569C61.9461 40.1516 59.529 41.4618 57.196 43.5921C55.1858 45.4151 52.7165 46.631 49.7975 45.8086C48.3379 45.3975 46.5662 45.5355 45.0553 46.1452C42.5754 47.1191 39.8236 46.8217 37.5609 45.6268C35.5693 44.5878 33.1195 44.057 30.7223 44.1781C26.8347 44.2775 23.8736 43.0451 21.3389 40.5788C19.0545 38.3424 16.4371 36.7289 13.8515 35.8412C9.99396 34.4359 8.28279 32.122 7.69635 28.6117C7.29831 26.1102 6.24393 23.9813 6.84677 21.8414C9.09185 13.8723 23.3793 10.9682 38.7774 15.3061C54.1754 19.6441 64.9188 29.5998 62.6737 37.569Z" fill="#AAD7D4"/>
<path d="M64.0873 32.5514C61.468 41.8488 46.8895 45.7859 31.4915 41.4479C16.0205 37.0894 5.66192 26.0474 8.26039 16.8238C8.50984 15.9384 8.90525 15.094 9.37363 14.2702C13.7558 6.82347 27.0115 3.94731 40.877 7.85351C54.7425 11.7597 64.6203 21.153 64.4708 29.7922C64.461 30.6656 64.3575 31.5921 64.0873 32.5514Z" fill="#EE5D7C"/>
<path d="M64.4706 29.7922C60.1092 37.1652 46.8536 40.0413 32.9151 36.1146C18.9766 32.1878 9.24473 22.8356 9.37349 14.2702C13.7557 6.82346 27.0113 3.9473 40.8768 7.85349C54.7423 11.7597 64.6202 21.153 64.4706 29.7922Z" fill="#F281A3"/>
<path d="M41.4027 13.8157C41.5721 17.1289 35.623 20.0723 28.1917 20.4478C20.7605 20.8232 14.5571 18.5181 14.3669 15.2787C14.1976 11.9656 20.1467 9.02215 27.5779 8.64668C35.0299 8.19742 41.2126 10.5764 41.4027 13.8157Z" fill="#F2AEBD"/>
<path d="M46.6843 23.5868C46.3924 23.5046 46.2468 24.0211 46.5387 24.1033C46.9244 24.1323 47.0491 23.6896 46.6843 23.5868Z" fill="#EE3686"/>
<path d="M51.3307 20.5151C50.382 20.2479 49.9662 21.7237 50.9149 21.9909C51.8636 22.2582 52.2794 20.7824 51.3307 20.5151Z" fill="#EE3686"/>
<path d="M37.8263 25.3921C36.8776 25.1248 36.4618 26.6006 37.4105 26.8679C38.4114 27.2295 38.8479 25.6799 37.8263 25.3921Z" fill="#EE3686"/>
<path d="M24.8905 24.0576L24.8176 24.037C24.5257 23.9548 24.3801 24.4713 24.672 24.5535L24.745 24.5741C25.0369 24.6563 25.1824 24.1398 24.8905 24.0576Z" fill="#EE3686"/>
<path d="M37.7081 20.5005C37.7081 20.5005 37.6351 20.4799 37.7081 20.5005C37.4785 20.1969 37.0097 20.463 37.1663 20.7461C37.2914 20.861 37.3436 20.9553 37.5626 21.017C37.9274 21.1198 38.0729 20.6033 37.7081 20.5005Z" fill="#EE3686"/>
<path d="M44.09 11.5463C43.7981 11.4641 43.6526 11.9806 43.9445 12.0628C44.2364 12.1451 44.3819 11.6285 44.09 11.5463Z" fill="#EE3686"/>
<path d="M28.093 27.5085L27.8741 27.4468C26.9254 27.1795 26.4889 28.7291 27.4376 28.9963L27.6565 29.058C28.699 29.2721 29.1147 27.7963 28.093 27.5085Z" fill="#EE3686"/>
<path d="M13.9188 15.4711C13.6163 15.1469 13.1369 15.1712 12.814 15.4784C12.6265 15.5849 12.4911 15.7857 12.4288 16.0071C12.304 16.4498 12.5858 16.8477 12.9507 16.9505C13.3155 17.0533 13.6906 16.8404 13.8675 16.492C14.2426 16.2791 14.1691 15.7009 13.9188 15.4711Z" fill="#EE3686"/>
<path d="M45.2535 33.1394C44.3048 32.8721 43.8891 34.3479 44.8378 34.6152C45.8594 34.903 46.2752 33.4272 45.2535 33.1394Z" fill="#EE3686"/>
</g>
<defs>
<clipPath id="clip0">
<rect width="58" height="45" fill="white" transform="translate(13) rotate(15.7336)"/>
</clipPath>
</defs>
</svg>
